<?xml version="1.0" encoding="UTF-8"?>
<svg enable-background="new 0 0 512 512" version="1.1" viewBox="0 0 512 512" xmlns="http://www.w3.org/2000/svg"
   xmlns:cc="http://creativecommons.org/ns#" xmlns:dc="http://purl.org/dc/elements/1.1/"
   xmlns:rdf="http://www.w3.org/1999/02/22-rdf-syntax-ns#">
   <linearGradient id="gradient" gradientUnits="userSpaceOnUse" x1="0" x2="0" y1="512" y2="0">
      <stop offset="0" stop-color="#fd3a84" />
      <stop offset="1" stop-color="#ffa68d" />
   </linearGradient>
   <metadata>
      <rdf:RDF>
         <cc:Work rdf:about="">
            <dc:format>image/svg+xml</dc:format>
            <dc:type rdf:resource="http://purl.org/dc/dcmitype/StillImage" />
         </cc:Work>
      </rdf:RDF>
   </metadata>
   <path fill="url(#gradient)"
      d="m199.928 308.677c-4.94-2.47-10.947-.468-13.417 4.472s-.468 10.947 4.472 13.417l.057.028c1.432.716 2.952 1.055 4.447 1.055 3.664 0 7.187-2.034 8.941-5.542 2.47-4.94.44-10.961-4.5-13.43z" />
   <path fill="url(#gradient)"
      d="m486.36 242.15c-6.62-12.06-15.362-25.421-23.76-37.66-4.997-7.283-10.246-14.405-15.821-21.255-17.428-21.41-35.914-41.976-55.018-61.905-6.0283-6.2888-12.347-12.301-18.783-18.171-13.984-12.756-28.294-25.176-43.057-37.023-6.895-5.5334-13.957-10.873-21.236-15.889-12.602-8.6853-26.381-17.75-38.793-24.564-42.544-23.354-73.637-27.088-89.922-10.802-7.1365 7.1365-10.428 17.119-9.912 29.661l-168.13 450.11c-1.7616 4.7144-0.60777 10.024 2.9515 13.583 2.4542 2.4542 5.7385 3.7636 9.0883 3.7636 1.5085 0 3.0299-0.26598 4.4947-0.81336l452.77-169.18c10.795-0.23129 19.513-3.531 25.931-9.9389 16.283-16.285 12.549-47.379-10.804-89.923zm-360.1-6.9065c5.0318 2.2126 9.6318 5.3543 13.598 9.3209 17.402 17.402 17.402 45.719-9e-3 63.13-11.932 11.955-29.242 15.951-44.802 11.098zm1.3196 207.74c-0.49599-12.244 4.0745-24.45 12.975-33.33 8.3932-8.3932 19.555-13.015 31.432-13.015 11.877 0 23.039 4.6219 31.432 13.015 1.1937 1.1924 2.309 2.4401 3.3472 3.7417zm255.29-95.388c-24.059-12.068-52.758-31.843-81.453-56.177-5.4108-4.5898-13.52-3.9216-18.111 1.4892-4.5898 5.4121-3.9229 13.52 1.4892 18.111 23.016 19.517 45.538 35.913 66.394 48.415l-119.59 44.686c-2.823-4.5538-6.1522-8.7876-10.002-12.637-13.248-13.248-30.864-20.542-49.603-20.542-18.741 0-36.357 7.2958-49.593 20.532-16.03 15.994-23.162 38.832-19.659 60.795l-66.881 24.989 50.192-134.37c7.2509 2.4272 14.76 3.6299 22.241 3.6299 18.182 0 36.175-7.0633 49.744-20.659 27.422-27.422 27.422-72.041 0-99.464-6.5981-6.5981-14.318-11.738-22.775-15.243l18.398-49.25c12.515 20.865 28.905 43.391 48.394 66.401 2.5416 3.0003 6.1651 4.5448 9.8117 4.5448 2.9348 0 5.8837-0.99968 8.2981-3.044 5.4147-4.5872 6.0867-12.695 1.4995-18.11-24.293-28.682-44.067-57.382-56.175-81.462l16.242-43.478c2.5866 5.7629 5.5894 11.778 9.0292 18.048 20.572 37.496 54.346 80.592 95.102 121.35 40.763 40.764 83.86 74.545 121.35 95.123 6.9219 3.7995 13.529 7.0594 19.83 9.8182zm96.009-33.812c-0.78766 0.78766-4.6951 2.9386-11.722 2.3206-9.4956-0.67973-24.822-5.0498-47.509-17.501-35.405-19.432-76.425-51.657-115.51-90.738-39.072-39.073-71.289-80.094-90.716-115.5-11.216-20.445-15.868-34.903-17.173-44.505 0 0-2.1278-10.566 2.0045-14.691 2.1767-2.1715 7.0684-2.3925 9.0819-2.417 9.177-0.1105 25.208 3.9345 50.108 17.604 12.579 6.9052 26.706 16.34 39.53 25.302 7.0655 4.9376 13.895 10.216 20.578 15.661 13.827 11.265 27.235 23.051 40.338 35.149 6.3247 5.8398 12.519 11.83 18.462 18.058 16.358 17.146 32.227 34.789 47.269 53.101 5.4686 6.6575 10.681 13.535 15.6 20.608 8.6602 12.451 17.749 26.143 24.457 38.367 20.856 37.983 19.057 55.328 15.198 59.185z"
      stroke-width="1.2849" />
</svg>