<svg id="Capa_1" enable-background="new 0 0 509.748 509.748" height="512" viewBox="0 0 509.748 509.748" width="512"
    xmlns="http://www.w3.org/2000/svg">
    <linearGradient id="gradient" gradientUnits="userSpaceOnUse" x1="0" x2="0" y1="512" y2="0">
        <stop offset="0" stop-color="#fd3a84"/>
        <stop offset="1" stop-color="#ffa68d"/>
    </linearGradient>
    <circle cx="217.272" cy="96.641" r="7.5" fill="url(#gradient)"/>
    <circle cx="293.32" cy="61.028" r="7.5" fill="url(#gradient)"/>
    <circle cx="300.82" cy="123.932" r="7.5" fill="url(#gradient)"/>
    <path d="m372.714 180.083c7.917-6.238 13.015-15.902 13.015-26.74 0-13.294-7.673-25.124-19.296-30.694.338-3.545.508-7.085.508-10.582 0-61.794-50.273-112.067-112.067-112.067-26.485 0-52.188 9.412-72.374 26.501-3.162 2.676-3.555 7.409-.878 10.57 2.676 3.161 7.408 3.555 10.569.878 17.481-14.799 39.743-22.949 62.683-22.949 53.522 0 97.066 43.544 97.066 97.067 0 4.76-.366 9.622-1.088 14.452-.568 3.806 1.835 7.424 5.564 8.376 8.427 2.15 14.313 9.736 14.313 18.448 0 10.498-8.54 19.038-19.038 19.038-7.476 0-14.292-4.411-17.365-11.237-1.211-2.69-3.888-4.421-6.839-4.421s-5.628 1.73-6.839 4.421c-3.073 6.827-9.89 11.237-17.365 11.237-7.476 0-14.292-4.411-17.365-11.237-1.212-2.69-3.888-4.421-6.839-4.421-2.95 0-5.627 1.73-6.839 4.421-3.074 6.827-9.891 11.238-17.365 11.238-7.476 0-14.292-4.411-17.365-11.237-1.212-2.69-3.888-4.421-6.839-4.421-2.95 0-5.627 1.73-6.839 4.421-3.074 6.827-9.891 11.238-17.366 11.238s-14.291-4.411-17.364-11.237c-1.212-2.69-3.888-4.421-6.839-4.421-2.95 0-5.627 1.73-6.839 4.421-3.074 6.827-9.891 11.238-17.365 11.238-10.498 0-19.039-8.54-19.039-19.038 0-8.712 5.886-16.298 14.313-18.448 3.729-.951 6.132-4.57 5.564-8.376-.722-4.83-1.088-9.692-1.088-14.452 0-18.174 5.052-35.892 14.608-51.238 2.189-3.516 1.114-8.142-2.401-10.331-3.512-2.188-8.142-1.115-10.331 2.401-11.04 17.728-16.876 38.188-16.876 59.168 0 3.497.17 7.037.508 10.582-11.623 5.57-19.296 17.4-19.296 30.694 0 10.838 5.098 20.502 13.015 26.74-8.026 6.301-13.015 16.068-13.015 26.787 0 18.769 15.27 34.039 34.039 34.039 2.09 0 4.149-.202 6.16-.574l63.98 247.44c3.45 13.346 13.921 21.97 26.674 21.97 12.754 0 23.225-8.624 26.675-21.97l5.892-22.783c1.037-4.01-1.373-8.102-5.383-9.139-4.016-1.036-8.103 1.374-9.139 5.383l-5.892 22.783c-2.045 7.908-7.618 10.725-12.153 10.725-4.534 0-10.107-2.817-12.152-10.725l-7.766-30.034 53.731-53.731-8.038 31.085c-1.037 4.01 1.373 8.102 5.383 9.139.63.163 1.262.241 1.883.241 3.337 0 6.382-2.244 7.256-5.625l50.359-194.762c2.012.372 4.071.574 6.161.574 18.769 0 34.038-15.27 34.038-34.039 0-10.719-4.989-20.486-13.015-26.787zm-142.117 257.05-14.786-57.182 105.371-105.371-9.001 34.81c-.092.083-.187.161-.276.25l-32.778 32.778c-2.929 2.929-2.929 7.678 0 10.606 1.465 1.464 3.385 2.197 5.304 2.197s3.839-.732 5.304-2.197l15.058-15.058-8.708 33.68zm97.904-190.857c-.427.279-.833.605-1.208.98l-115.84 115.84-4.892-18.921 32.404-32.405c2.929-2.929 2.929-7.678 0-10.606-2.93-2.929-7.678-2.929-10.607 0l-26.155 26.155-24.047-93.001c1.456-1.065 2.833-2.241 4.107-3.529 6.289 6.355 14.964 10.121 24.203 10.121s17.914-3.766 24.205-10.121c1.355 1.369 2.826 2.609 4.384 3.726l-26.369 26.369c-2.929 2.929-2.929 7.678 0 10.606 1.465 1.464 3.385 2.197 5.304 2.197s3.839-.732 5.304-2.197l30.912-30.912c1.535.213 3.093.331 4.669.331 9.239 0 17.913-3.766 24.204-10.121 6.29 6.355 14.965 10.121 24.204 10.121s17.914-3.766 24.204-10.12c1.274 1.287 2.651 2.463 4.106 3.528zm23.19-20.366c-7.476 0-14.292-4.411-17.365-11.237-1.212-2.69-3.888-4.421-6.839-4.421s-5.627 1.73-6.839 4.421c-3.073 6.826-9.89 11.237-17.365 11.237-7.476 0-14.292-4.411-17.365-11.237-1.212-2.69-3.888-4.421-6.839-4.421-2.95 0-5.627 1.73-6.839 4.42-3.074 6.827-9.891 11.238-17.365 11.238-7.476 0-14.292-4.411-17.365-11.237-1.212-2.69-3.888-4.421-6.839-4.421-2.95 0-5.627 1.73-6.839 4.42-3.074 6.827-9.891 11.238-17.366 11.238s-14.291-4.411-17.364-11.237c-1.212-2.69-3.888-4.421-6.839-4.421-2.95 0-5.627 1.73-6.839 4.42-3.074 6.827-9.891 11.238-17.365 11.238-10.498 0-19.039-8.541-19.039-19.039 0-8.712 5.886-16.298 14.313-18.448.903-.23 1.72-.622 2.44-1.127.757.05 1.517.085 2.286.085 9.239 0 17.913-3.766 24.204-10.121 6.289 6.355 14.964 10.121 24.203 10.121s17.914-3.766 24.205-10.121c6.29 6.355 14.965 10.121 24.204 10.121s17.913-3.766 24.204-10.121c6.29 6.355 14.965 10.121 24.204 10.121s17.914-3.766 24.204-10.12c6.29 6.354 14.965 10.12 24.204 10.12.769 0 1.529-.035 2.285-.085.721.504 1.538.896 2.44 1.127 8.427 2.15 14.313 9.736 14.313 18.448 0 10.498-8.54 19.039-19.038 19.039z" fill="url(#gradient)"/>
</svg>