<?xml version="1.0" encoding="UTF-8" standalone="no"?>
<svg
   xmlns:osb="http://www.openswatchbook.org/uri/2009/osb"
   xmlns:dc="http://purl.org/dc/elements/1.1/"
   xmlns:cc="http://creativecommons.org/ns#"
   xmlns:rdf="http://www.w3.org/1999/02/22-rdf-syntax-ns#"
   xmlns:svg="http://www.w3.org/2000/svg"
   xmlns="http://www.w3.org/2000/svg"
   xmlns:xlink="http://www.w3.org/1999/xlink"
   xmlns:sodipodi="http://sodipodi.sourceforge.net/DTD/sodipodi-0.dtd"
   xmlns:inkscape="http://www.inkscape.org/namespaces/inkscape"
   width="512.0px"
   height="512.0px"
   viewBox="0 0 512.0 512.0"
   version="1.1"
   id="SVGRoot"
   sodipodi:docname="partyjs.svg"
   inkscape:version="1.0.1 (3bc2e813f5, 2020-09-07)">
  <defs
     id="defs833">
    <pattern
       inkscape:collect="always"
       xlink:href="#Strips1_1"
       id="pattern2940"
       patternTransform="matrix(37.440894,-5.044508,6.0561212,44.949196,0,0)" />
    <pattern
       inkscape:collect="always"
       patternUnits="userSpaceOnUse"
       width="2"
       height="1"
       patternTransform="translate(0,0) scale(10,10)"
       id="Strips1_1"
       inkscape:stockid="Stripes 1:1"
       inkscape:isstock="true">
      <rect
         style="stroke:none;fill:#f8a93b;"
         x="0"
         y="-0.5"
         width="1"
         height="2"
         id="path1" />
    </pattern>
    <linearGradient
       id="linearGradient3491"
       osb:paint="solid">
      <stop
         style="stop-color:#4286f6;stop-opacity:1;"
         offset="0"
         id="stop3489" />
    </linearGradient>
    <linearGradient
       inkscape:collect="always"
       xlink:href="#linearGradient3491"
       id="linearGradient3493"
       x1="189.39861"
       y1="182.3067"
       x2="407.65251"
       y2="182.3067"
       gradientUnits="userSpaceOnUse" />
    <filter
       style="color-interpolation-filters:sRGB;"
       inkscape:label="Drop Shadow"
       id="filter920">
      <feFlood
         flood-opacity="0.180392"
         flood-color="rgb(0,0,0)"
         result="flood"
         id="feFlood910" />
      <feComposite
         in="flood"
         in2="SourceGraphic"
         operator="in"
         result="composite1"
         id="feComposite912" />
      <feGaussianBlur
         in="composite1"
         stdDeviation="0"
         result="blur"
         id="feGaussianBlur914" />
      <feOffset
         dx="-8.68263"
         dy="10.7784"
         result="offset"
         id="feOffset916" />
      <feComposite
         in="SourceGraphic"
         in2="offset"
         operator="over"
         result="composite2"
         id="feComposite918" />
    </filter>
  </defs>
  <sodipodi:namedview
     id="base"
     pagecolor="#ffffff"
     bordercolor="#666666"
     borderopacity="1.0"
     inkscape:pageopacity="0.0"
     inkscape:pageshadow="2"
     inkscape:zoom="2.8"
     inkscape:cx="267.73733"
     inkscape:cy="199.8477"
     inkscape:document-units="px"
     inkscape:current-layer="layer1"
     inkscape:document-rotation="0"
     showgrid="false"
     inkscape:window-width="1920"
     inkscape:window-height="1017"
     inkscape:window-x="-8"
     inkscape:window-y="-8"
     inkscape:window-maximized="1"
     showguides="true">
    <inkscape:grid
       type="xygrid"
       id="grid1403" />
  </sodipodi:namedview>
  <metadata
     id="metadata836">
    <rdf:RDF>
      <cc:Work
         rdf:about="">
        <dc:format>image/svg+xml</dc:format>
        <dc:type
           rdf:resource="http://purl.org/dc/dcmitype/StillImage" />
        <dc:title />
      </cc:Work>
    </rdf:RDF>
  </metadata>
  <g
     inkscape:label="Layer 1"
     inkscape:groupmode="layer"
     id="layer1">
    <ellipse
       style="fill:#a31818;fill-opacity:1;stroke:#4286f6;stroke-width:0;stroke-miterlimit:4;stroke-dasharray:none"
       id="path1412"
       cx="358.44525"
       cy="-36.35825"
       rx="160.4893"
       ry="86.417923"
       transform="matrix(0.78691528,0.61706105,-0.56194522,0.82717445,0,0)" />
    <path
       id="path856"
       style="fill:#000000;stroke:none;stroke-width:1px;stroke-linecap:butt;stroke-linejoin:miter;stroke-opacity:1;fill-opacity:0.11290322"
       d="M 198.0332 73.375 A 161.82821 86.771479 39.686418 0 0 175.27344 91.34375 A 161.82821 86.771479 39.686418 0 0 253.57617 263.11914 A 161.82821 86.771479 39.686418 0 0 429.72266 290.87109 A 161.82821 86.771479 39.686418 0 0 435.14648 280.27539 C 411.29184 279.47682 371.93544 261.28456 286.37891 198.49414 C 212.3515 144.16501 198.28561 99.23745 198.0332 73.375 z " />
    <rect
       style="fill:#ee8ef3;fill-opacity:1;stroke:#f83b3b;stroke-width:0;stroke-linejoin:round;stroke-miterlimit:4;stroke-dasharray:none;stroke-opacity:1;paint-order:normal"
       id="rect3779"
       width="30.681347"
       height="47.931271"
       x="469.3056"
       y="412.04437"
       transform="matrix(0.95821902,-0.28603552,-0.26100712,0.96533688,0,0)" />
    <rect
       style="fill:#8175ff;fill-opacity:1;stroke:#f83b3b;stroke-width:0;stroke-linejoin:round;stroke-miterlimit:4;stroke-dasharray:none;stroke-opacity:1;paint-order:normal"
       id="rect854"
       width="22.550814"
       height="46.69556"
       x="345.79782"
       y="255.32394"
       transform="matrix(0.96432615,-0.26471697,-0.3004546,0.95379612,0,0)" />
    <rect
       style="fill:#5df34a;fill-opacity:1;stroke:#f83b3b;stroke-width:0;stroke-linejoin:round;stroke-miterlimit:4;stroke-dasharray:none;stroke-opacity:1;paint-order:normal"
       id="rect3789"
       width="20.494141"
       height="64.030083"
       x="452.28726"
       y="346.56937"
       transform="matrix(0.93157762,-0.36354247,-0.15460694,0.98797606,0,0)" />
    <rect
       style="fill:#ee8af2;fill-opacity:1;stroke:#f83b3b;stroke-width:0;stroke-linejoin:round;stroke-miterlimit:4;stroke-dasharray:none;stroke-opacity:1;paint-order:normal"
       id="rect852"
       width="53.199997"
       height="46.4981"
       x="344.44394"
       y="-155.51936"
       transform="matrix(0.47846385,0.87810725,-0.14917905,0.9888102,0,0)" />
    <rect
       style="fill:#cb6fd0;fill-opacity:1;stroke:#f83b3b;stroke-width:0;stroke-linejoin:round;stroke-miterlimit:4;stroke-dasharray:none;stroke-opacity:1;paint-order:normal"
       id="rect3785"
       width="18.716259"
       height="52.417236"
       x="355.05246"
       y="172.47763"
       transform="matrix(0.95414649,-0.29934007,-0.30283597,0.95304269,0,0)" />
    <rect
       style="fill:#8fd9ea;fill-opacity:1;stroke:#f83b3b;stroke-width:0;stroke-linejoin:round;stroke-miterlimit:4;stroke-dasharray:none;stroke-opacity:1;paint-order:normal"
       id="rect3775"
       width="30.626667"
       height="36.483166"
       x="534.23022"
       y="285.11725"
       transform="matrix(0.93555939,-0.35316941,-0.41905817,0.90795939,0,0)" />
    <rect
       style="fill:#36b325;fill-opacity:1;stroke:#f83b3b;stroke-width:0;stroke-linejoin:round;stroke-miterlimit:4;stroke-dasharray:none;stroke-opacity:1;paint-order:normal"
       id="rect3781"
       width="15.109982"
       height="63.119411"
       x="667.66345"
       y="403.86398"
       transform="matrix(0.92935867,-0.36917808,-0.48230529,0.8760032,0,0)" />
    <rect
       style="fill:#98e8f9;fill-opacity:1;stroke:#f83b3b;stroke-width:0;stroke-linejoin:round;stroke-miterlimit:4;stroke-dasharray:none;stroke-opacity:1;paint-order:normal"
       id="rect850"
       width="21.085117"
       height="37.777336"
       x="446.87497"
       y="535.71338"
       transform="matrix(0.79025951,-0.61277231,-0.14523266,0.98939753,0,0)" />
    <g
       aria-label="JS"
       id="text3368"
       style="font-style:normal;font-variant:normal;font-weight:normal;font-stretch:normal;font-size:200px;line-height:1.25;font-family:'Arial Rounded MT Bold';-inkscape-font-specification:'Arial Rounded MT Bold, ';letter-spacing:-20px;fill:#ffe558;fill-opacity:1;stroke:#000000;stroke-width:0;stroke-linejoin:round;stroke-miterlimit:4;stroke-dasharray:none;stroke-opacity:1;filter:url(#filter920)">
      <path
         d="m 292.01494,123.52419 v 75 q 0,9.76562 -0.87891,16.60156 -0.78125,6.83594 -3.71094,13.86719 -4.88281,11.8164 -16.11328,18.45703 -11.23047,6.54297 -27.34375,6.54297 -14.55078,0 -24.3164,-4.58985 -9.66797,-4.58984 -15.625,-14.84375 -3.125,-5.46875 -5.07813,-12.59765 -1.95312,-7.12891 -1.95312,-13.57422 0,-6.83594 3.80859,-10.44922 3.80859,-3.61328 9.76563,-3.61328 5.76171,0 8.6914,3.32031 2.92969,3.32031 4.49219,10.35156 1.66016,7.51953 3.32031,12.01172 1.66016,4.49219 5.56641,7.71484 3.90625,3.22266 11.13281,3.22266 19.23828,0 19.23828,-28.22266 v -79.19921 q 0,-8.78907 3.8086,-13.1836 3.90625,-4.39453 10.54687,-4.39453 6.73828,0 10.64453,4.39453 4.00391,4.39453 4.00391,13.1836 z"
         style="font-size:200px;fill:#ffe558;fill-opacity:1;stroke:#000000;stroke-width:0;stroke-linejoin:round;stroke-miterlimit:4;stroke-dasharray:none;stroke-opacity:1"
         id="path949" />
      <path
         d="m 412.24931,208.58278 q 0,12.98828 -6.73828,23.33984 -6.64062,10.35157 -19.53125,16.21094 -12.89062,5.85938 -30.5664,5.85938 -21.19141,0 -34.96094,-8.00782 -9.76563,-5.76172 -15.91797,-15.33203 -6.05469,-9.66797 -6.05469,-18.75 0,-5.27344 3.61328,-8.98437 3.71094,-3.8086 9.375,-3.8086 4.58985,0 7.71485,2.92969 3.22265,2.92969 5.46875,8.69141 2.73437,6.83593 5.85937,11.42578 3.22266,4.58984 8.98438,7.61719 5.76172,2.92968 15.13672,2.92968 12.89062,0 20.89843,-5.95703 8.10547,-6.05469 8.10547,-15.03906 0,-7.12891 -4.39453,-11.52344 -4.29687,-4.49219 -11.23047,-6.83594 -6.83594,-2.34375 -18.35937,-4.98046 -15.42969,-3.61329 -25.87891,-8.39844 -10.35156,-4.88281 -16.50391,-13.1836 -6.05468,-8.39843 -6.05468,-20.80078 0,-11.8164 6.44531,-20.99609 6.44531,-9.17969 18.65234,-14.0625 12.20703,-4.98047 28.71094,-4.98047 13.18359,0 22.75391,3.32031 9.66797,3.22266 16.01562,8.69141 6.34766,5.37109 9.27735,11.32812 2.92968,5.95704 2.92968,11.6211 0,5.17578 -3.71093,9.375 -3.61329,4.10156 -9.08204,4.10156 -4.98046,0 -7.61718,-2.44141 -2.53907,-2.53906 -5.56641,-8.20312 -3.90625,-8.10547 -9.375,-12.59766 -5.46875,-4.58984 -17.57812,-4.58984 -11.23047,0 -18.16407,4.98047 -6.83593,4.88281 -6.83593,11.8164 0,4.29688 2.34375,7.42188 2.34375,3.125 6.44531,5.37109 4.10156,2.2461 8.30078,3.51563 4.19922,1.26953 13.86719,3.71094 12.10937,2.83203 21.875,6.25 9.86328,3.41796 16.69922,8.30078 6.93359,4.88281 10.74218,12.40234 3.90625,7.42188 3.90625,18.26172 z"
         style="font-size:200px;fill:#ffe558;fill-opacity:1;stroke:#000000;stroke-width:0;stroke-linejoin:round;stroke-miterlimit:4;stroke-dasharray:none;stroke-opacity:1"
         id="path951" />
    </g>
    <path
       id="path3350"
       style="fill:#f83b3b;fill-opacity:1;stroke:none;stroke-width:0;stroke-linecap:butt;stroke-linejoin:miter;stroke-miterlimit:4;stroke-dasharray:none;stroke-opacity:1"
       d="m 174.16493,95.058468 c 0,0 -0.3608,0.948002 -0.3774,0.991258 a 160.64129,86.135054 39.686417 0 1 0.49443,-0.888543 z m -5.17841,13.555102 C 144.79704,172.00622 29.350827,476.39531 39.51203,485.43339 49.248516,494.0937 413.82625,305.07054 413.82625,305.07054 l -0.61148,-0.53503 A 160.64129,86.135054 39.686417 0 1 253.93578,262.58995 160.64129,86.135054 39.686417 0 1 168.98652,108.61357 Z" />
    <path
       id="path2944"
       style="opacity:1;fill:url(#pattern2940);fill-opacity:1;fill-rule:nonzero;stroke:none;stroke-width:0;stroke-linecap:butt;stroke-linejoin:miter;stroke-miterlimit:4;stroke-dasharray:none;stroke-opacity:1"
       d="m 174.16493,95.058468 c 0,0 -0.3608,0.948002 -0.3774,0.991258 a 160.64129,86.135054 39.686417 0 1 0.49443,-0.888543 z m -5.17841,13.555102 C 144.79704,172.00622 29.350827,476.39531 39.51203,485.43339 49.248516,494.0937 413.82625,305.07054 413.82625,305.07054 l -0.61148,-0.53503 A 160.64129,86.135054 39.686417 0 1 253.93578,262.58995 160.64129,86.135054 39.686417 0 1 168.98652,108.61357 Z" />
    <path
       id="path3376"
       style="fill:#000000;stroke:none;stroke-width:1px;stroke-linecap:butt;stroke-linejoin:miter;stroke-opacity:1;fill-opacity:0.10080645"
       d="M 309.69727 296.77734 L 39.248047 485.06055 C 39.325073 485.21073 39.409483 485.34266 39.511719 485.43359 C 49.248205 494.0939 413.82617 305.07031 413.82617 305.07031 L 413.21484 304.53516 A 160.64129 86.135054 39.686417 0 1 309.69727 296.77734 z " />
    <path
       id="path922"
       style="fill:#ffffff;stroke:none;stroke-width:1px;stroke-linecap:butt;stroke-linejoin:miter;stroke-opacity:1;fill-opacity:0.19758064"
       d="M 174.16406 95.058594 C 174.16406 95.058594 173.80371 96.005572 173.78711 96.048828 A 160.64129 86.135054 39.686417 0 1 174.28125 95.162109 L 174.16406 95.058594 z M 168.98633 108.61328 C 145.04023 171.36811 31.66948 470.28368 39.248047 485.06055 L 174.52734 161.16602 A 160.64129 86.135054 39.686417 0 1 168.98633 108.61328 z " />
    <rect
       style="fill:#61c8de;fill-opacity:1;stroke:#f83b3b;stroke-width:0;stroke-linejoin:round;stroke-miterlimit:4;stroke-dasharray:none;stroke-opacity:1;paint-order:normal"
       id="rect3773"
       width="23.547188"
       height="60.326538"
       x="517.4718"
       y="-99.399376"
       transform="matrix(0.90700897,0.42111129,0.26552381,0.9641043,0,0)" />
    <rect
       style="fill:#7ef56e;fill-opacity:1;stroke:#f83b3b;stroke-width:0;stroke-linejoin:round;stroke-miterlimit:4;stroke-dasharray:none;stroke-opacity:1;paint-order:normal"
       id="rect3777"
       width="33.635551"
       height="59.3974"
       x="248.72928"
       y="-65.650536"
       transform="matrix(0.88766226,0.46049507,0.27964203,0.96010434,0,0)" />
    <rect
       style="fill:#8579ff;fill-opacity:1;stroke:#f83b3b;stroke-width:0;stroke-linejoin:round;stroke-miterlimit:4;stroke-dasharray:none;stroke-opacity:1;paint-order:normal"
       id="rect3783"
       width="19.938816"
       height="52.732269"
       x="415.0177"
       y="210.48331"
       transform="matrix(0.90795939,-0.41905816,-0.1922549,0.98134502,0,0)" />
    <rect
       style="fill:#6d5fff;fill-opacity:1;stroke:#f83b3b;stroke-width:0;stroke-linejoin:round;stroke-miterlimit:4;stroke-dasharray:none;stroke-opacity:1;paint-order:normal"
       id="rect3787"
       width="22.092701"
       height="53.346436"
       x="721.11768"
       y="528.51636"
       transform="matrix(0.94142359,-0.33722636,-0.45276122,0.8916318,0,0)" />
  </g>
</svg>
