<?xml version="1.0" encoding="iso-8859-1"?>
<!-- Generator: Adobe Illustrator 16.0.0, SVG Export Plug-In . SVG Version: 6.00 Build 0)  -->
<!DOCTYPE svg PUBLIC "-//W3C//DTD SVG 1.1//EN" "http://www.w3.org/Graphics/SVG/1.1/DTD/svg11.dtd">
<svg version="1.1" id="Capa_1" xmlns="http://www.w3.org/2000/svg" xmlns:xlink="http://www.w3.org/1999/xlink" x="0px"
	y="0px" width="512" height="512" viewBox="0 0 32 32" style="enable-background:new 0 0 32 32;" xml:space="preserve">
	<linearGradient id="gradient" gradientUnits="userSpaceOnUse" x1="0" x2="0" y1="32" y2="0">
		<stop offset="0" stop-color="#fd3a84" />
		<stop offset="1" stop-color="#ffa68d" />
	</linearGradient>
	<path d="M31.878,2.375c-0.163-0.464-0.643-1.271-2.031-1.469c-1.526-0.085-3.46,1.114-5.38,2.778
		c-0.011,0.004-0.022,0.007-0.033,0.011l0.005,0.015c-3.306,2.872-6.562,7.109-7.623,8.535c0.04-0.104,0.065-0.218,0.065-0.337
		c0-0.377-0.219-0.7-0.536-0.856c0.142-0.303,0.358-0.611,0.572-0.914c0.4-0.569,0.809-1.156,0.726-1.717
		c0-0.005,0.003-0.01,0.003-0.015c0-0.018-0.007-0.032-0.01-0.048c-0.001-0.001,0-0.002-0.001-0.003l0,0
		C17.609,8.222,17.5,8.121,17.36,8.121c-0.155,0-0.283,0.127-0.283,0.284c0,0.157,0.128,0.284,0.283,0.284
		c0.035,0,0.069-0.009,0.102-0.021c-0.044,0.425-0.36,0.881-0.698,1.359c-0.221,0.314-0.446,0.635-0.596,0.957
		c-0.078-0.021-0.158-0.035-0.244-0.035c-0.021,0-0.041,0.005-0.061,0.006c-0.273-0.51-0.508-0.873-0.705-1.179
		c-0.305-0.471-0.506-0.784-0.614-1.279c0.015,0.002,0.026,0.008,0.042,0.008c0.156,0,0.284-0.127,0.284-0.284
		c0-0.156-0.128-0.284-0.284-0.284c-0.156,0-0.284,0.128-0.284,0.284c0,0.037,0.009,0.072,0.021,0.104
		c0.103,0.657,0.334,1.02,0.679,1.553c0.188,0.291,0.411,0.636,0.667,1.11c-0.402,0.112-0.701,0.479-0.701,0.918
		c0,0.033,0.008,0.065,0.011,0.098c-1.233-1.639-4.302-5.552-7.415-8.257l0.006-0.014C7.557,3.729,7.544,3.727,7.535,3.722
		c-1.92-1.664-3.854-2.863-5.381-2.778C0.764,1.144,0.287,1.95,0.123,2.414c-0.271,0.771-0.056,1.575,0.284,1.94
		C2.226,6.488,2.374,8.28,2.298,9.158C2.23,9.949,1.962,10.411,1.841,10.51c-0.348,0.291-0.238,0.706-0.152,1.04
		c0.104,0.395,0.153,0.648-0.103,0.875l-0.208,0.186l0.207,0.187c0.255,0.229,0.362,1.015,0.375,1.359l0.006,0.188l2.221,0.564
		C4.002,15.61,3.503,17.61,3.54,18.6l0.006,0.161c0.037,1.096,0.069,2.042,0.768,2.783c0.402,0.429,0.386,1.124,0.371,1.683
		c-0.006,0.252-0.012,0.47,0.021,0.644l0.551,2.861c0.009,0.025,0.899,2.557-0.013,3.886l-0.045,0.063v0.077
		c0,0.233,0.164,0.341,0.314,0.341c0.159,0,0.322-0.107,0.594-0.286c0.381-0.252,0.957-0.632,1.504-0.632
		c0.129,0,0.252,0.021,0.367,0.062l0.057,0.021l0.061-0.008c0.369-0.047,0.53-0.141,0.66-0.214c0.107-0.062,0.166-0.096,0.371-0.096
		c0.277,0,0.741,0.07,1.461,0.223l0.16,0.033l0.094-0.133c0.098-0.137,0.336-0.165,0.52-0.165c0.504,0,1.098,0.211,1.104,0.213
		l0.311,0.111l0.022-0.328c0.001-0.013,0.035-0.462,0.161-1.122l0.018-0.015c-0.004-0.004-0.009-0.008-0.012-0.013
		c0.232-1.206,0.77-3.098,1.965-4.344l0.1-0.104l-0.041-0.134c-0.387-1.344-0.3-3.426-0.091-5.296
		c0.224,0.54,0.568,1.103,1.078,1.671c0.608-0.917,0.907-1.765,1.026-2.52c0.271,2.051,0.451,4.563,0.008,6.104l-0.039,0.138
		l0.099,0.104c1.196,1.246,1.733,3.138,1.967,4.344c-0.004,0.004-0.009,0.009-0.013,0.013l0.019,0.015
		c0.125,0.66,0.16,1.109,0.16,1.121l0.022,0.329l0.312-0.11c0.006-0.002,0.599-0.215,1.103-0.215c0.185,0,0.423,0.029,0.521,0.166
		l0.094,0.133l0.16-0.033c0.719-0.151,1.184-0.222,1.461-0.222c0.205,0,0.264,0.032,0.37,0.094c0.13,0.075,0.292,0.168,0.661,0.214
		l0.06,0.008l0.057-0.021c0.115-0.042,0.239-0.063,0.368-0.063c0.547,0,1.123,0.38,1.504,0.632c0.271,0.179,0.435,0.286,0.593,0.286
		c0.151-0.001,0.315-0.106,0.315-0.341v-0.077l-0.044-0.063c-0.913-1.33-0.022-3.86-0.013-3.887l0.55-2.859
		c0.033-0.175,0.028-0.393,0.021-0.645c-0.015-0.559-0.03-1.254,0.372-1.683c0.697-0.742,0.73-1.688,0.769-2.784l0.006-0.16
		c0.035-0.99-0.465-2.99-0.648-3.69l2.221-0.565l0.007-0.188c0.012-0.345,0.119-1.131,0.375-1.359l0.207-0.188l-0.209-0.185
		c-0.257-0.227-0.207-0.48-0.104-0.876c0.088-0.333,0.197-0.749-0.15-1.039c-0.12-0.1-0.391-0.562-0.456-1.354
		c-0.076-0.877,0.07-2.669,1.891-4.805C31.934,3.949,32.148,3.146,31.878,2.375z M12.03,13.678c-0.91-0.563-1.851-1.145-2.897-1.35
		c-0.31-0.072-0.613-0.122-0.914-0.16c0.003-0.024,0.005-0.052,0.009-0.072c0.005-0.019,0.031-0.04,0.075-0.074
		c0.079-0.062,0.212-0.165,0.175-0.386c-0.037-0.182-0.204-0.253-0.339-0.31c-0.063-0.026-0.141-0.06-0.166-0.091
		c-0.032-0.145,0.015-0.17,0.196-0.244c0.112-0.046,0.254-0.105,0.36-0.229c0.169,0.079,0.335,0.161,0.495,0.247
		c1.066,0.595,2.033,1.361,2.967,2.103c0.76,0.603,1.541,1.221,2.386,1.757C13.555,14.616,12.782,14.143,12.03,13.678z
		 M13.667,17.562c0.173,0.304,0.432,0.582,0.779,0.841c-0.106,0.873-0.191,1.813-0.218,2.722c-0.007-0.021-0.015-0.039-0.021-0.06
		c-0.301-0.812-0.611-1.653-0.58-2.469C13.651,18.262,13.662,17.912,13.667,17.562z M13.469,19.537
		c-0.252,0.273-0.361,0.646-0.426,1.044c-0.342-0.367-0.917-1.11-0.896-1.938l-0.085-0.002c0.427-0.983,0.899-1.987,1.419-3.018
		c-0.039,0.501-0.047,1.021-0.055,1.529c-0.006,0.477-0.013,0.968-0.045,1.431C13.368,18.902,13.403,19.22,13.469,19.537z
		 M8.225,26.61c0.002,0.031,0.004,0.062,0.004,0.091c-0.083-0.075-0.165-0.143-0.243-0.203c-0.135-0.106-0.254-0.201-0.349-0.333
		c0.198-0.22,0.394-0.446,0.583-0.682C8.187,25.821,8.205,26.218,8.225,26.61z M7.514,25.928c-0.031-0.084-0.057-0.181-0.073-0.296
		c-0.017-0.097-0.002-0.216,0.011-0.333c0.02-0.167,0.039-0.34-0.019-0.483c-0.014-0.042-0.031-0.08-0.05-0.118
		c0.413-0.346,0.835-0.702,1.225-1.073c0.465-0.419,0.816-0.693,1.188-0.982c0.001-0.002,0.003-0.003,0.005-0.004
		c-0.033,0.04-0.063,0.078-0.09,0.113c-0.383,0.553-0.683,1.065-1.008,1.635C8.357,24.937,7.941,25.45,7.514,25.928z M9.643,22.444
		c-0.375,0.293-0.73,0.569-1.205,0.996c-0.377,0.362-0.787,0.708-1.188,1.045c-0.04-0.055-0.081-0.105-0.124-0.157
		c-0.118-0.145-0.23-0.279-0.268-0.447c-0.043-0.133-0.037-0.321-0.031-0.504c0.006-0.15,0.011-0.307-0.008-0.441l-0.021-0.104
		c-0.021-0.109-0.039-0.193-0.059-0.271c0.037-0.037,0.074-0.074,0.111-0.111v0.003c1.515-0.388,2.852-0.73,4.033-1.77
		c-0.052,0.137-0.104,0.274-0.152,0.411c-0.061,0.037-0.07,0.105-0.067,0.185c-0.001,0.002-0.001,0.004-0.002,0.006l-0.022-0.011
		v0.07c-0.037,0.105-0.076,0.214-0.113,0.318c-0.029,0.051-0.061,0.102-0.096,0.152C10.137,22.057,9.884,22.255,9.643,22.444z
		 M6.095,23.675c-0.053-0.092-0.108-0.171-0.165-0.241c0.191-0.229,0.393-0.45,0.602-0.666c0.006,0.033,0.014,0.069,0.021,0.109
		l0.02,0.099c0.016,0.107,0.01,0.251,0.006,0.391c-0.008,0.205-0.016,0.416,0.039,0.579c0.047,0.214,0.184,0.38,0.316,0.54
		c0.043,0.055,0.086,0.105,0.124,0.159c-0.278,0.232-0.56,0.471-0.836,0.715c-0.032-0.078-0.056-0.165-0.067-0.264
		c-0.014-0.178,0.02-0.334,0.053-0.484C6.268,24.339,6.329,24.056,6.095,23.675z M5.569,21.305
		c-0.021-0.203-0.119-0.391-0.213-0.572c-0.006-0.013-0.012-0.024-0.02-0.038c0.203-0.304,0.385-0.611,0.561-0.915
		c0.133-0.227,0.263-0.447,0.398-0.665c-0.004,0.037-0.006,0.073-0.015,0.113c-0.028,0.114-0.068,0.175-0.11,0.238
		c-0.07,0.104-0.142,0.215-0.142,0.496c0.021,0.142,0.077,0.232,0.132,0.32c0.074,0.122,0.139,0.228,0.117,0.412
		c-0.027,0.254-0.095,0.389-0.154,0.506c-0.123,0.245-0.178,0.41,0.129,0.94c0.078,0.116,0.129,0.2,0.166,0.275
		c-0.244,0.248-0.481,0.505-0.707,0.771c-0.214-0.229-0.354-0.391-0.307-0.847c0.015-0.131,0.053-0.25,0.09-0.364
		C5.562,21.776,5.628,21.569,5.569,21.305z M5.082,18.571c-0.066-0.118-0.127-0.229-0.162-0.337c0.023-0.035,0.047-0.07,0.069-0.105
		c0.236-0.366,0.481-0.745,0.791-1.021c0.118-0.104,0.233-0.205,0.349-0.3c0.004,0.005,0.007,0.01,0.01,0.014
		c0.076,0.101,0.141,0.187,0.141,0.277c0.021,0.177-0.031,0.292-0.092,0.425c-0.045,0.099-0.096,0.21-0.115,0.346
		c-0.001,0.273,0.068,0.479,0.129,0.661c0.012,0.032,0.021,0.063,0.031,0.096c-0.223,0.326-0.42,0.661-0.613,0.992
		c-0.139,0.238-0.282,0.48-0.435,0.722c-0.011-0.036-0.021-0.071-0.028-0.109c-0.02-0.215,0.027-0.36,0.078-0.515
		c0.045-0.133,0.09-0.271,0.09-0.457C5.324,19.005,5.201,18.784,5.082,18.571z M5.116,16.127c-0.005-0.113-0.069-0.195-0.121-0.263
		c-0.054-0.069-0.087-0.115-0.087-0.179c0-0.05,0.031-0.104,0.067-0.167c0.046-0.081,0.099-0.174,0.099-0.29
		c-0.007-0.066-0.01-0.117-0.014-0.166c-0.011-0.174-0.021-0.354-0.16-0.465c-0.063-0.051-0.145-0.076-0.246-0.083l-0.08-0.021
		c0.352-0.351,0.891-0.519,1.477-0.595c-0.012,0.03-0.023,0.062-0.035,0.091c-0.129,0.317-0.25,0.618-0.191,0.969
		c0.021,0.126,0.082,0.237,0.143,0.345c0.074,0.136,0.146,0.264,0.146,0.424c0,0.104-0.037,0.204-0.076,0.311
		c-0.045,0.123-0.09,0.249-0.09,0.396c0.01,0.061,0.027,0.112,0.05,0.16c-0.126,0.104-0.253,0.213-0.382,0.328
		c-0.298,0.265-0.529,0.604-0.75,0.94c0.001-0.239,0.066-0.462,0.137-0.692C5.099,16.847,5.199,16.516,5.116,16.127z M4.562,10.714
		c-0.018-0.05-0.043-0.12-0.076-0.217c-0.064-0.152-0.135-0.215-0.188-0.262c-0.055-0.048-0.073-0.064-0.055-0.225
		c0.012-0.079,0.059-0.128,0.121-0.19C4.39,9.794,4.417,9.766,4.442,9.733c0.145,0.01,0.287,0.019,0.424,0.026
		c0.298,0.018,0.555,0.033,0.718,0.063C5.628,9.832,5.673,9.841,5.717,9.85C5.705,9.881,5.696,9.917,5.696,9.956
		c0.033,0.24,0.216,0.349,0.361,0.436c0.082,0.049,0.168,0.1,0.188,0.15c0.04,0.088,0.058,0.136,0.065,0.163
		c-0.077,0.041-0.172,0.107-0.233,0.291c-0.061,0.183-0.101,0.23-0.117,0.251c-0.064,0.08-0.047,0.138-0.02,0.226
		c0.012,0.038,0.029,0.093,0.051,0.178c0.061,0.181,0.145,0.267,0.207,0.329c0.027,0.028,0.048,0.05,0.061,0.077
		c-0.025-0.001-0.051-0.002-0.077-0.002c-0.241-0.005-0.483-0.01-0.729-0.019c-0.276,0.001-0.544,0.001-0.807,0.007
		c-0.009-0.012-0.017-0.023-0.024-0.034c-0.018-0.023-0.043-0.06-0.049-0.072c-0.026-0.117-0.082-0.183-0.126-0.235
		c-0.054-0.063-0.079-0.098-0.079-0.167c0.004-0.015,0.043-0.055,0.067-0.078c0.062-0.063,0.14-0.141,0.14-0.254
		c0.01-0.088,0.02-0.147,0.027-0.188C4.623,10.891,4.617,10.869,4.562,10.714z M4.257,11.86c0.032,0.039,0.059,0.07,0.07,0.109
		c0.004,0.028,0.016,0.055,0.029,0.081c-0.154,0.006-0.307,0.015-0.459,0.026c-0.133,0-0.303-0.023-0.482-0.049
		c-0.069-0.01-0.141-0.02-0.213-0.028C3.2,11.977,3.2,11.952,3.205,11.926c0.011-0.044,0.067-0.139,0.117-0.221
		c0.09-0.151,0.175-0.294,0.175-0.422c0-0.179-0.085-0.305-0.159-0.417c-0.07-0.105-0.132-0.196-0.132-0.33
		c0-0.04,0.041-0.083,0.108-0.15c0.095-0.093,0.225-0.221,0.225-0.431C3.514,9.797,3.433,9.683,3.354,9.583
		c0.239,0.06,0.505,0.099,0.775,0.125C4.069,9.772,4.014,9.856,3.996,9.979c-0.029,0.273,0.038,0.356,0.137,0.444
		c0.043,0.038,0.083,0.073,0.121,0.163c0.03,0.092,0.056,0.162,0.074,0.214c0.039,0.11,0.039,0.11,0.029,0.172
		c-0.008,0.045-0.019,0.109-0.029,0.218c-0.004,0.027-0.045,0.066-0.068,0.09c-0.063,0.063-0.141,0.141-0.141,0.255
		C4.119,11.697,4.199,11.792,4.257,11.86z M3.127,7.985C3.057,7.816,2.99,7.656,2.955,7.48C2.937,7.388,2.937,7.281,2.937,7.168
		c0-0.12-0.001-0.243-0.021-0.371c0.193,0.026,0.393,0.076,0.578,0.127c-0.021,0.26-0.02,0.322,0.076,0.419
		C3.601,7.375,3.646,7.42,3.716,7.562C3.763,7.638,3.808,7.694,3.852,7.75c0.09,0.11,0.161,0.198,0.185,0.395
		c0,0.061-0.063,0.171-0.119,0.268C3.852,8.528,3.787,8.639,3.787,8.751l0.006,0.034C3.848,8.979,4,9.094,4.123,9.188
		c0.08,0.061,0.155,0.118,0.166,0.169c0.003,0.016,0.002,0.026,0.004,0.039C3.895,9.361,3.479,9.304,3.182,9.192
		c0.011-0.041,0.029-0.085,0.05-0.136C3.277,8.947,3.33,8.823,3.33,8.668C3.306,8.409,3.214,8.194,3.127,7.985z M2.442,6.799
		C2.505,6.785,2.57,6.778,2.64,6.778c0.01,0.019,0.023,0.037,0.03,0.055c0.018,0.11,0.018,0.225,0.018,0.335
		c0,0.126,0,0.245,0.023,0.361c0.039,0.2,0.115,0.379,0.188,0.552c0.083,0.201,0.163,0.39,0.183,0.598
		c0,0.093-0.039,0.184-0.079,0.28C2.985,9,2.97,9.041,2.955,9.083c-0.061-0.04-0.11-0.084-0.146-0.134
		C2.824,8.42,2.758,7.682,2.442,6.799z M2.371,3.208c-0.004-0.01-0.006-0.02-0.01-0.029c0.256,0.028,0.519,0.063,0.789,0.102
		c0.023,0.033,0.049,0.063,0.072,0.091c0.053,0.06,0.099,0.111,0.111,0.171c-0.004,0.09-0.022,0.163-0.043,0.24
		c-0.02,0.078-0.042,0.16-0.042,0.275c0,0.024-0.005,0.043-0.011,0.062c-0.245-0.083-0.493-0.16-0.741-0.232
		C2.498,3.877,2.5,3.864,2.5,3.851C2.5,3.595,2.432,3.389,2.371,3.208z M2.393,4.196c0.245,0.07,0.49,0.147,0.732,0.229
		c-0.008,0.054-0.012,0.114,0,0.19c0.025,0.128,0.098,0.221,0.168,0.31c0.074,0.095,0.145,0.186,0.164,0.313
		c-0.002,0.016-0.059,0.086-0.1,0.137C3.341,5.394,3.326,5.414,3.312,5.433C3.18,5.389,3.048,5.346,2.913,5.313
		C2.828,5.296,2.733,5.289,2.636,5.285C2.63,5.191,2.615,5.09,2.577,4.975C2.542,4.87,2.494,4.792,2.453,4.721
		C2.387,4.611,2.333,4.524,2.333,4.35C2.333,4.32,2.367,4.251,2.393,4.196z M8.564,10.42c-0.107-0.041-0.169-0.11-0.192-0.217
		C8.326,9.987,8.44,9.665,8.602,9.373c0.429,0.3,0.844,0.604,1.246,0.898c-0.041,0.093-0.07,0.183-0.096,0.27
		c-0.046,0.152-0.089,0.297-0.196,0.405c-0.124-0.074-0.247-0.148-0.374-0.218c-0.164-0.088-0.333-0.172-0.506-0.253l0.005-0.012
		L8.564,10.42z M7.735,11.313l0.01,0.026c0.058,0.116,0.185,0.17,0.297,0.217c0.084,0.036,0.181,0.076,0.19,0.125
		c0.011,0.067-0.009,0.086-0.083,0.145c-0.059,0.045-0.138,0.106-0.165,0.217c-0.006,0.028-0.009,0.063-0.013,0.097
		c-0.484-0.05-0.966-0.067-1.456-0.079c-0.014-0.114-0.069-0.184-0.14-0.256c-0.055-0.056-0.105-0.108-0.146-0.228
		c-0.022-0.082-0.04-0.14-0.052-0.179c-0.003-0.008-0.005-0.014-0.006-0.02c0.033-0.046,0.08-0.125,0.141-0.305
		c0.037-0.111,0.077-0.132,0.12-0.153c0.194-0.1,0.143-0.254,0.041-0.478c-0.05-0.124-0.171-0.197-0.289-0.267
		c-0.139-0.083-0.226-0.14-0.24-0.238C5.945,9.926,5.957,9.915,5.97,9.9c0.794,0.171,1.587,0.429,2.317,0.752
		c-0.06,0.047-0.135,0.078-0.212,0.109C7.893,10.837,7.643,10.938,7.735,11.313z M8.268,20.695c-0.141,0.128-0.28,0.254-0.42,0.38
		c-0.416,0.376-0.838,0.76-1.243,1.159c-0.036-0.063-0.081-0.137-0.139-0.224c-0.251-0.434-0.208-0.517-0.118-0.697
		c0.063-0.123,0.146-0.292,0.18-0.59c0.03-0.271-0.071-0.437-0.152-0.569c-0.046-0.073-0.086-0.139-0.098-0.212
		c0.002-0.186,0.044-0.25,0.103-0.338c0.047-0.071,0.104-0.16,0.146-0.318c0.045-0.198,0.035-0.366,0.003-0.521
		c0.28-0.405,0.597-0.786,1.016-1.126c0.231-0.191,0.527-0.384,0.853-0.574c-0.063,0.203-0.111,0.407-0.111,0.643
		c0,0.211,0.044,0.411,0.086,0.606c0.041,0.19,0.08,0.371,0.08,0.556c0,0.267-0.054,0.517-0.105,0.759
		C8.271,19.961,8.199,20.307,8.268,20.695z M7.337,17.387c-0.369,0.301-0.666,0.635-0.926,0.982c-0.05-0.15-0.092-0.302-0.092-0.484
		c0.014-0.083,0.053-0.169,0.094-0.261c0.066-0.146,0.143-0.312,0.113-0.543c0.001-0.159-0.1-0.293-0.189-0.411
		c-0.005-0.007-0.01-0.014-0.014-0.021c0.632-0.496,1.254-0.834,2.004-0.925c0.186-0.028,0.367-0.06,0.551-0.09
		c0.182-0.03,0.364-0.061,0.548-0.09c0.064,0.17,0.134,0.339,0.203,0.506C8.804,16.456,7.901,16.921,7.337,17.387z M6.184,15.182
		C6.132,15.088,6.083,15,6.07,14.917c-0.047-0.282,0.057-0.538,0.177-0.835c0.028-0.069,0.056-0.142,0.083-0.214
		c0.504-0.041,1.023-0.03,1.477-0.02c0.07,0.002,0.137,0.003,0.203,0.005l0.018,0.036c0.021-0.008,0.038-0.021,0.055-0.034
		c0.08,0.001,0.158,0.002,0.232,0.002c0.232,0,0.471-0.015,0.706-0.031c0.002,0.455,0.136,0.965,0.319,1.48
		c-0.168,0.026-0.336,0.055-0.502,0.082c-0.184,0.031-0.364,0.062-0.543,0.09c-0.79,0.095-1.44,0.441-2.096,0.951
		c-0.001-0.006-0.004-0.012-0.005-0.019c0.001-0.082,0.038-0.183,0.077-0.289c0.045-0.123,0.091-0.25,0.091-0.396
		C6.361,15.502,6.268,15.333,6.184,15.182z M6.33,13.125c-0.057-0.069-0.092-0.116-0.092-0.181c-0.018-0.17-0.004-0.182,0.029-0.212
		c0.07-0.062,0.145-0.144,0.205-0.349c0.501,0.012,0.991,0.028,1.484,0.079c0,0.116,0.002,0.238,0.004,0.365
		c0.006,0.24,0.014,0.614-0.021,0.775c-0.042-0.001-0.083-0.002-0.128-0.003c-0.429-0.01-0.918-0.021-1.4,0.012
		c0.002-0.004,0.002-0.009,0.004-0.013C6.53,13.369,6.414,13.225,6.33,13.125z M8.615,18.259c-0.041-0.19-0.08-0.371-0.08-0.556
		c0-0.277,0.078-0.512,0.17-0.781l0.014-0.04c0.338-0.185,0.692-0.364,1.037-0.532c0.029,0.066,0.058,0.133,0.086,0.197
		c0.13,0.303,0.254,0.588,0.349,0.843c0.087,0.262,0.188,0.531,0.289,0.803c0.001,0.004,0.003,0.007,0.005,0.011
		c-0.33,0.503-0.664,0.939-1.004,1.317c-0.313,0.331-0.648,0.651-0.988,0.966c-0.018-0.275,0.037-0.537,0.097-0.81
		c0.055-0.255,0.112-0.519,0.112-0.811C8.701,18.657,8.657,18.456,8.615,18.259z M9.68,15.507c0.354-0.052,0.707-0.095,1.049-0.113
		c0.078-0.004,0.164-0.007,0.254-0.008c-0.239,0.127-0.565,0.284-0.871,0.432c-0.083,0.04-0.17,0.082-0.257,0.124
		C9.794,15.798,9.734,15.653,9.68,15.507z M10.425,17.306c-0.1-0.264-0.225-0.552-0.355-0.857c-0.029-0.068-0.06-0.139-0.09-0.208
		c0.092-0.044,0.184-0.089,0.271-0.131c0.803-0.387,1.184-0.574,1.32-0.73c0.143-0.003,0.287-0.007,0.434-0.015
		c-0.449,0.991-0.898,1.845-1.355,2.573C10.571,17.726,10.494,17.515,10.425,17.306z M12.375,15.337
		c0.385-0.039,0.748-0.115,1.026-0.271c-0.833,1.622-1.552,3.181-2.158,4.69c-0.106-0.484-0.274-0.963-0.449-1.435
		C11.327,17.504,11.846,16.523,12.375,15.337z M11.271,15.133c-0.204,0.002-0.394,0.004-0.556,0.012
		c-0.37,0.02-0.747,0.067-1.125,0.124c-0.185-0.513-0.321-1.017-0.321-1.453H9.18c0.021-0.001,0.043-0.002,0.064-0.004
		c0.406-0.03,0.825-0.061,1.222-0.037c0.118,0,0.325,0.054,0.526,0.105c0.352,0.092,0.71,0.182,0.934,0.113
		c0.462,0.285,0.932,0.571,1.418,0.811C12.869,15.116,11.957,15.128,11.271,15.133z M11.055,13.639
		c-0.236-0.061-0.438-0.113-0.582-0.113c-0.404-0.023-0.832,0.007-1.246,0.037c-0.303,0.022-0.615,0.046-0.912,0.046
		c-0.039,0-0.082-0.001-0.123-0.002c0.029-0.178,0.027-0.436,0.02-0.785c-0.002-0.112-0.004-0.224-0.005-0.329
		c0.284,0.037,0.569,0.085,0.86,0.152c0.869,0.171,1.678,0.625,2.459,1.102C11.354,13.717,11.167,13.669,11.055,13.639z
		 M4.046,7.591C4.008,7.546,3.971,7.5,3.936,7.441C3.853,7.273,3.787,7.208,3.748,7.168c-0.015-0.028-0.014-0.103-0.01-0.177
		C3.798,7.009,3.86,7.026,3.914,7.04c0.783,0.188,1.527,0.483,2.238,0.84c-0.015,0.094-0.08,0.146-0.17,0.212
		C5.845,8.193,5.655,8.333,5.655,8.668c0,0.229,0.166,0.353,0.299,0.452c0.124,0.093,0.199,0.155,0.199,0.254
		c0.011,0.08-0.044,0.127-0.157,0.201c-0.118-0.024-0.236-0.05-0.354-0.07C5.46,9.471,5.195,9.456,4.887,9.438
		c-0.107-0.006-0.222-0.013-0.34-0.021C4.544,9.38,4.541,9.344,4.532,9.304c-0.028-0.14-0.145-0.229-0.259-0.315
		c-0.101-0.076-0.197-0.15-0.234-0.253c0.008-0.049,0.057-0.133,0.096-0.201c0.07-0.124,0.151-0.265,0.151-0.407
		C4.251,7.845,4.143,7.711,4.046,7.591z M5.946,7.396c0.016,0.015,0.03,0.029,0.044,0.044C5.354,7.142,4.688,6.893,3.992,6.725
		c-0.047-0.011-0.097-0.025-0.149-0.04c0.001,0,0.001,0,0.001-0.001c0.08-0.104,0.18-0.232,0.15-0.442
		C3.936,6.059,3.794,5.979,3.67,5.91C3.66,5.903,3.649,5.898,3.64,5.892c0.032,0.013,0.063,0.023,0.097,0.035
		c0.176,0.067,0.355,0.134,0.539,0.195c0.17,0.057,0.338,0.111,0.508,0.167c0.365,0.12,0.724,0.237,1.074,0.362
		C5.778,6.707,5.717,6.77,5.7,6.857C5.665,7.138,5.828,7.289,5.946,7.396z M5.944,6.897c0.01-0.028,0.136-0.094,0.219-0.136
		c0.469,0.175,0.925,0.365,1.369,0.597c0.522,0.275,1.031,0.598,1.529,0.946C8.983,8.429,8.898,8.552,8.799,8.671
		C8.729,8.74,8.648,8.839,8.567,8.956c-0.694-0.478-1.426-0.938-2.197-1.33c-0.016-0.052-0.035-0.108-0.06-0.168
		C6.27,7.354,6.19,7.283,6.115,7.213C5.996,7.104,5.929,7.035,5.944,6.897z M3.751,6.298c0.01,0.078-0.031,0.138-0.105,0.232
		c-0.02,0.025-0.039,0.053-0.059,0.082C3.319,6.541,3.021,6.469,2.735,6.458C2.729,6.451,2.727,6.444,2.723,6.438
		C2.66,6.346,2.596,6.253,2.58,6.188C2.547,5.994,2.574,5.846,2.604,5.689c0.005-0.026,0.009-0.054,0.014-0.081
		c0.083,0.003,0.161,0.008,0.224,0.021C2.966,5.66,3.087,5.699,3.208,5.74c0.001,0.003,0,0.006,0.001,0.01
		c0.028,0.203,0.2,0.3,0.339,0.378C3.646,6.182,3.729,6.229,3.751,6.298z M8.128,10.233c-0.586-0.24-1.201-0.439-1.822-0.588
		c0.067-0.072,0.113-0.164,0.095-0.289c0.002-0.211-0.164-0.336-0.297-0.435c-0.125-0.093-0.2-0.154-0.2-0.253
		c0-0.21,0.1-0.283,0.226-0.376c0.111-0.083,0.209-0.169,0.252-0.297C7.085,8.364,7.755,8.791,8.396,9.23
		C8.213,9.559,8.075,9.94,8.128,10.233z M9.99,10.61c0.02-0.068,0.041-0.132,0.066-0.194l0.22,0.152
		c0.261,0.18,0.522,0.363,0.785,0.55c-0.164,0.157-0.327,0.324-0.474,0.513c-0.268-0.191-0.541-0.377-0.82-0.554
		C9.891,10.935,9.942,10.771,9.99,10.61z M11.268,11.266c0.223,0.159,0.444,0.323,0.664,0.491c-0.008,0.009-0.014,0.017-0.02,0.025
		c-0.146,0.186-0.294,0.376-0.396,0.543c-0.238-0.186-0.48-0.369-0.726-0.549C10.934,11.591,11.096,11.429,11.268,11.266z
		 M11.504,11.036c0.147-0.145,0.292-0.3,0.421-0.474c0.195,0.161,0.393,0.323,0.59,0.484c-0.086,0.068-0.174,0.157-0.272,0.285
		c-0.032,0.052-0.072,0.108-0.116,0.167C11.921,11.341,11.713,11.187,11.504,11.036z M11.902,9.988
		c0.003,0.049,0.003,0.091-0.004,0.132c-0.012-0.01-0.024-0.021-0.036-0.03c-0.348-0.288-0.699-0.58-1.055-0.867
		c0.004-0.011,0.01-0.021,0.016-0.032c0.055-0.117,0.106-0.228,0.169-0.335c0.304,0.286,0.612,0.574,0.93,0.854
		C11.896,9.823,11.899,9.916,11.902,9.988z M11.655,10.339c0.026,0.021,0.053,0.043,0.078,0.065
		c-0.133,0.179-0.28,0.334-0.436,0.485c-0.28-0.199-0.561-0.396-0.838-0.588l-0.225-0.155c0.01-0.013,0.02-0.024,0.029-0.036
		c0.099-0.116,0.2-0.236,0.277-0.391c0.045-0.068,0.08-0.135,0.115-0.201C10.995,9.791,11.327,10.065,11.655,10.339z M10.326,9.596
		c-0.07,0.139-0.162,0.248-0.25,0.353c-0.016,0.018-0.03,0.036-0.045,0.054C9.625,9.706,9.206,9.398,8.772,9.096
		c0.07-0.101,0.143-0.19,0.21-0.258c0.108-0.128,0.2-0.258,0.282-0.39c0.404,0.291,0.803,0.598,1.195,0.912
		C10.421,9.438,10.378,9.517,10.326,9.596z M9.216,8.019c-0.498-0.347-1.008-0.67-1.533-0.947C7.303,6.874,6.905,6.706,6.505,6.549
		c0.053-0.052,0.092-0.113,0.104-0.188c0.07-0.207-0.059-0.42-0.184-0.627C6.397,5.689,6.37,5.643,6.345,5.596
		c0.515,0.189,1.021,0.393,1.478,0.639c0.561,0.337,1.09,0.744,1.6,1.181C9.373,7.631,9.305,7.832,9.216,8.019z M6.369,6.302
		C6.358,6.354,6.3,6.4,6.231,6.442C5.783,6.277,5.33,6.128,4.883,5.981c-0.169-0.055-0.337-0.11-0.505-0.166
		C4.196,5.755,4.022,5.689,3.85,5.625C3.754,5.589,3.659,5.554,3.561,5.52c0.07-0.086,0.145-0.182,0.145-0.297
		c-0.03-0.213-0.134-0.344-0.218-0.451C3.432,4.699,3.382,4.637,3.37,4.573C3.367,4.549,3.366,4.529,3.366,4.508
		c0.405,0.143,0.804,0.296,1.193,0.449C4.897,5.087,5.254,5.212,5.6,5.332C5.741,5.38,5.88,5.432,6.022,5.48
		c0.042,0.14,0.12,0.27,0.19,0.385C6.312,6.03,6.408,6.186,6.369,6.302z M4.644,12.594c0.042-0.064,0.091-0.141,0.103-0.23
		c0.23-0.004,0.463-0.005,0.703-0.005c0.24,0.008,0.484,0.013,0.727,0.018c0.012,0.001,0.024,0.001,0.037,0.001
		c-0.039,0.103-0.076,0.139-0.109,0.168c-0.1,0.088-0.139,0.168-0.114,0.411c-0.001,0.146,0.087,0.251,0.149,0.327
		c0.059,0.07,0.086,0.111,0.066,0.174L6.2,13.458c-0.004,0.017-0.01,0.031-0.015,0.048c-0.012,0.021-0.024,0.042-0.046,0.069
		L6.16,13.59c-0.005,0.016-0.009,0.03-0.014,0.046c-0.427,0.046-0.838,0.137-1.19,0.301c0.035-0.104,0.043-0.229-0.01-0.404
		c-0.02-0.171-0.113-0.305-0.195-0.423c-0.08-0.115-0.156-0.224-0.174-0.386C4.576,12.698,4.608,12.647,4.644,12.594z M7.184,24.865
		c0.004,0.014,0.011,0.023,0.015,0.036c0.037,0.093,0.021,0.234,0.005,0.37c-0.016,0.134-0.031,0.271-0.01,0.4
		c0.028,0.188,0.077,0.336,0.136,0.46c-0.074,0.082-0.15,0.163-0.226,0.243c-0.119-0.186-0.272-0.325-0.423-0.459
		c-0.121-0.107-0.237-0.213-0.331-0.335C6.625,25.336,6.903,25.098,7.184,24.865z M7.21,22.099c0.282-0.266,0.569-0.526,0.854-0.784
		c0.557-0.503,1.132-1.022,1.653-1.574c0.311-0.344,0.609-0.731,0.903-1.163c0.19,0.523,0.366,1.057,0.443,1.584
		C9.951,21.317,8.716,21.708,7.21,22.099z M11.332,20.41l0.013-0.001c-0.001-0.008-0.003-0.017-0.003-0.023
		c0.182-0.467,0.374-0.938,0.576-1.414c0.121,0.871,0.76,1.601,1.055,1.896l0.034-0.033c-0.011,0.084-0.021,0.169-0.03,0.253
		c-0.033,0.29-0.064,0.563-0.131,0.794c-0.207,0.688-0.299,1.333-0.396,2.018c-0.021,0.148-0.042,0.298-0.064,0.449
		c-0.063,0.37-0.102,0.72-0.125,1.059c-0.021-0.001-0.046-0.009-0.077-0.027c-0.573-0.354-1.224-2.994-1.288-3.789
		C11.033,21.198,11.179,20.805,11.332,20.41z M12.192,12.859c-0.159-0.126-0.32-0.253-0.48-0.38
		c0.094-0.158,0.251-0.359,0.395-0.544c0.008-0.01,0.016-0.019,0.022-0.028c0.205,0.16,0.407,0.325,0.604,0.496
		c0.504,0.431,0.963,0.961,1.406,1.474c0.285,0.329,0.582,0.666,0.891,0.983c-0.002,0.008-0.003,0.016-0.005,0.023
		C14.012,14.299,13.087,13.569,12.192,12.859z M14.887,14.224c-0.17-0.187-0.339-0.372-0.502-0.56
		c-0.451-0.521-0.918-1.06-1.439-1.507c-0.203-0.175-0.41-0.344-0.619-0.508c0.046-0.063,0.088-0.122,0.121-0.175
		c0.1-0.129,0.184-0.211,0.267-0.268c0.3,0.241,0.601,0.479,0.901,0.704c0.566,0.426,1.018,0.957,1.446,1.487
		C14.937,13.675,14.869,13.964,14.887,14.224z M14.714,12.487c-0.273-0.298-0.568-0.582-0.906-0.835
		c-0.249-0.188-0.5-0.384-0.75-0.584c0.014-0.004,0.027-0.007,0.041-0.011c0.112-0.027,0.25-0.063,0.414-0.125
		C14.021,11.574,14.434,12.114,14.714,12.487z M12.28,9.418c0.164,0.196,0.322,0.389,0.477,0.576
		c-0.182-0.146-0.359-0.297-0.535-0.451C12.237,9.48,12.253,9.44,12.28,9.418z M13.233,10.764c-0.068,0.021-0.133,0.037-0.193,0.052
		c-0.077,0.019-0.149,0.037-0.221,0.062c-0.238-0.194-0.477-0.39-0.711-0.585c0.051-0.12,0.047-0.223,0.043-0.316
		c-0.002-0.022-0.001-0.045-0.001-0.066C12.5,10.21,12.859,10.5,13.233,10.764z M11.396,8.379c0.25,0.288,0.492,0.571,0.725,0.849
		c-0.045,0.037-0.077,0.085-0.1,0.137c-0.285-0.256-0.564-0.517-0.84-0.775C11.242,8.518,11.312,8.448,11.396,8.379z M9.772,6.583
		c0.504,0.535,0.994,1.077,1.46,1.609c-0.09,0.074-0.167,0.15-0.233,0.226c-0.419-0.396-0.846-0.796-1.288-1.178
		C9.75,7.017,9.768,6.797,9.772,6.583z M10.803,8.675c0.001,0.002,0.002,0.003,0.004,0.005c-0.076,0.125-0.138,0.253-0.199,0.383
		c-0.389-0.31-0.783-0.612-1.185-0.9c0.091-0.187,0.159-0.375,0.21-0.563C10.03,7.95,10.419,8.315,10.803,8.675z M9.521,6.317
		c0.004,0.264-0.008,0.506-0.036,0.729c-0.477-0.4-0.973-0.774-1.503-1.092C7.44,5.661,6.844,5.429,6.246,5.215
		C6.25,5.193,6.257,5.171,6.268,5.148c0.064-0.128,0.307-0.259,0.541-0.385C7.055,4.63,7.303,4.491,7.454,4.309
		C8.151,4.932,8.848,5.615,9.521,6.317z M7.269,4.145c-0.118,0.148-0.349,0.277-0.58,0.4c-0.28,0.152-0.544,0.295-0.646,0.497
		C6.028,5.072,6.02,5.103,6.012,5.132C5.91,5.097,5.808,5.061,5.706,5.025c-0.343-0.119-0.696-0.242-1.03-0.37
		C4.285,4.501,3.882,4.347,3.474,4.204c0.014-0.042,0.023-0.089,0.023-0.146c0-0.083,0.017-0.143,0.034-0.212
		C3.555,3.761,3.58,3.666,3.58,3.519C3.565,3.444,3.541,3.385,3.511,3.337C3.623,3.354,3.733,3.373,3.85,3.393
		c0.43,0.074,0.882,0.117,1.32,0.159c0.561,0.054,1.137,0.11,1.678,0.233C6.987,3.901,7.128,4.021,7.269,4.145z M3.378,2.54
		c0.071-0.27,0.146-0.565,0.07-0.888c0.923,0.316,1.945,0.965,2.992,1.8C6.028,3.383,5.606,3.343,5.192,3.303
		c-0.433-0.041-0.88-0.084-1.3-0.157c-0.203-0.034-0.397-0.065-0.59-0.095C3.294,3.029,3.289,3.005,3.289,2.979
		C3.3,2.84,3.338,2.694,3.378,2.54z M2.426,2.134c0.112-0.263,0.18-0.464,0.009-0.691c0.23,0.011,0.473,0.05,0.723,0.118
		C3.293,1.879,3.22,2.17,3.139,2.476C3.097,2.634,3.054,2.799,3.041,2.969c0,0.017,0.004,0.029,0.006,0.045
		c-0.26-0.036-0.512-0.067-0.758-0.093c-0.027-0.127-0.035-0.258,0-0.412C2.328,2.365,2.38,2.243,2.426,2.134z M0.594,2.579
		c0.148-0.422,0.532-0.95,1.508-1.121c0.255,0.2,0.211,0.311,0.096,0.579c-0.05,0.115-0.106,0.246-0.15,0.411
		C2.009,2.615,2.009,2.76,2.028,2.894C1.52,2.846,1.026,2.821,0.53,2.815C0.546,2.736,0.565,2.657,0.594,2.579z M0.504,3.064
		C1.026,3.07,1.548,3.097,2.089,3.15c0.015,0.046,0.029,0.092,0.045,0.137C2.19,3.458,2.244,3.623,2.25,3.823
		C2.066,3.775,1.886,3.73,1.703,3.692c-0.38-0.084-0.768-0.128-1.149-0.128C0.515,3.412,0.497,3.241,0.504,3.064z M0.779,4.021
		C0.746,3.985,0.714,3.94,0.686,3.893c0.316,0.009,0.634,0.047,0.949,0.116c0.172,0.037,0.342,0.079,0.513,0.123
		C2.112,4.208,2.084,4.279,2.084,4.35c0,0.245,0.082,0.381,0.155,0.501c0.037,0.063,0.074,0.124,0.1,0.202
		c0.029,0.087,0.041,0.16,0.047,0.231c-0.034,0-0.068,0-0.104,0.001c-0.188,0.003-0.42,0.007-0.589-0.021
		C1.444,4.864,1.144,4.449,0.779,4.021z M1.896,5.608c0.125,0.005,0.258,0.003,0.393,0c0.025,0,0.051,0,0.075-0.001
		C2.361,5.62,2.359,5.632,2.356,5.646C2.328,5.808,2.294,5.992,2.335,6.238c0.02,0.08,0.061,0.156,0.109,0.231
		c-0.041,0.006-0.08,0.017-0.119,0.026C2.21,6.213,2.068,5.917,1.896,5.608z M2.162,10.894c0.246-0.205,0.521-0.758,0.615-1.544
		c0.059,0.039,0.121,0.074,0.191,0.104c0.044,0.095,0.104,0.175,0.162,0.247c0.075,0.093,0.146,0.182,0.161,0.274
		c-0.002,0.078-0.059,0.141-0.152,0.234c-0.085,0.085-0.182,0.18-0.182,0.327c0,0.21,0.096,0.354,0.174,0.47
		c0.065,0.098,0.117,0.175,0.117,0.278c0,0.06-0.081,0.195-0.141,0.294c-0.063,0.107-0.124,0.209-0.146,0.298
		c-0.006,0.036-0.006,0.068-0.006,0.102c-0.219-0.014-0.438-0.004-0.635,0.067c-0.017,0.006-0.033,0.011-0.051,0.017
		c0.008-0.229-0.048-0.449-0.098-0.638C2.085,11.091,2.071,10.968,2.162,10.894z M2.446,13.952c-0.027-0.316-0.111-0.936-0.365-1.33
		c0.033-0.044,0.059-0.089,0.082-0.134c0.01-0.021,0.019-0.04,0.027-0.061c0.029-0.013,0.081-0.028,0.125-0.042
		c0.033-0.011,0.07-0.021,0.11-0.035c0.178-0.064,0.392-0.063,0.613-0.041c0.034,0.082,0.056,0.14,0.044,0.195
		c-0.016,0.157-0.05,0.288-0.088,0.427c-0.075,0.281-0.154,0.572-0.033,0.963L3.2,13.822c-0.1-0.323-0.037-0.556,0.036-0.826
		c0.038-0.143,0.078-0.29,0.093-0.455c0.015-0.069,0.005-0.136-0.014-0.199c0.019,0.003,0.037,0.005,0.055,0.008
		c0.193,0.026,0.374,0.051,0.542,0.051c0.191-0.017,0.383-0.024,0.574-0.031c-0.012,0.024-0.029,0.054-0.052,0.089
		c-0.048,0.073-0.106,0.165-0.106,0.278c0.025,0.238,0.127,0.386,0.217,0.515c0.076,0.108,0.141,0.201,0.157,0.331
		c0.07,0.241,0.019,0.305-0.108,0.459c-0.059,0.07-0.129,0.16-0.197,0.277c-0.027,0.026-0.055,0.052-0.08,0.08l0.047,0.041
		L2.446,13.952z M4.042,18.744l-0.006-0.16c-0.04-1.11,0.689-3.76,0.697-3.786l0.002-0.009c0.002,0.002,0.006,0.002,0.008,0.004
		c0.053,0.043,0.061,0.161,0.068,0.286c0.004,0.055,0.008,0.11,0.014,0.166c0,0.034-0.031,0.089-0.066,0.151
		c-0.047,0.081-0.1,0.174-0.1,0.29c0,0.152,0.08,0.256,0.139,0.331c0.042,0.056,0.068,0.092,0.068,0.125l0.003,0.027
		c0.073,0.33-0.015,0.62-0.107,0.928c-0.101,0.334-0.202,0.68-0.111,1.094c-0.187,0.283-0.375,0.549-0.602,0.764
		C4.046,18.884,4.044,18.816,4.042,18.744z M4.615,21.129c-0.416-0.488-0.512-1.088-0.551-1.858c0.271-0.217,0.49-0.493,0.689-0.785
		c0.034,0.07,0.072,0.141,0.11,0.208c0.104,0.186,0.21,0.376,0.21,0.563c0,0.146-0.035,0.254-0.076,0.38
		c-0.053,0.163-0.113,0.349-0.089,0.628c0.024,0.122,0.062,0.229,0.105,0.33C4.891,20.776,4.759,20.956,4.615,21.129z M5.155,22.355
		c-0.039-0.336-0.133-0.673-0.336-0.966c0.129-0.15,0.246-0.305,0.357-0.461c0.07,0.14,0.131,0.274,0.146,0.418
		c0.047,0.21-0.005,0.37-0.064,0.555c-0.041,0.127-0.084,0.258-0.102,0.414C5.157,22.331,5.158,22.341,5.155,22.355z M5.207,23.843
		l-0.012-0.066c-0.023-0.121-0.019-0.323-0.014-0.537c0.004-0.135,0.006-0.28,0.004-0.433c0.066,0.249,0.209,0.405,0.359,0.565
		c0.003,0.004,0.006,0.007,0.01,0.011C5.434,23.533,5.317,23.686,5.207,23.843z M5.607,25.939l-0.316-1.654l0.002,0.001
		c0.146-0.225,0.308-0.439,0.475-0.65c0.038,0.052,0.075,0.104,0.112,0.168c0.184,0.299,0.139,0.501,0.084,0.756
		c-0.036,0.159-0.076,0.342-0.059,0.562c0.019,0.161,0.064,0.296,0.125,0.414C5.887,25.667,5.746,25.801,5.607,25.939z
		 M5.665,26.234c0.161-0.166,0.329-0.327,0.502-0.485c0.106,0.137,0.23,0.249,0.349,0.354c0.155,0.139,0.303,0.271,0.403,0.443
		c0.003,0.006,0.005,0.011,0.008,0.017c-0.131,0.137-0.261,0.271-0.388,0.402c-0.191,0.197-0.374,0.388-0.549,0.575
		c-0.105-0.499-0.227-0.864-0.259-0.956L5.665,26.234z M7.966,29.727c-0.115-0.026-0.233-0.044-0.355-0.044
		c-0.639,0-1.238,0.36-1.666,0.64c0.287-0.797,0.229-1.737,0.102-2.48c0.209-0.229,0.436-0.461,0.671-0.704
		C6.811,27.042,6.903,26.945,7,26.845c-0.016,0.159-0.144,0.282-0.338,0.449c-0.236,0.203-0.529,0.455-0.508,0.896
		c0.021,0.278,0.27,0.512,0.475,0.659c0.374,0.271,0.977,0.505,1.369,0.465c-0.004,0.014-0.01,0.03-0.013,0.044
		c-0.03,0.088-0.044,0.177-0.056,0.248c-0.006,0.035-0.014,0.08-0.02,0.093c0.003-0.007,0.018-0.026,0.045-0.037
		c0.029-0.011,0.053-0.004,0.059-0.001L7.966,29.727z M8.081,29.042c-0.016,0.006-0.03,0.015-0.046,0.019
		c-0.273,0.068-0.861-0.124-1.261-0.412c-0.226-0.162-0.36-0.334-0.371-0.473c-0.016-0.315,0.196-0.498,0.421-0.691
		c0.236-0.203,0.523-0.449,0.396-0.868c0.082-0.086,0.165-0.175,0.247-0.265c0.107,0.137,0.234,0.238,0.365,0.342
		c0.137,0.109,0.28,0.224,0.413,0.393c0.003,0.159,0.001,0.305-0.013,0.421c-0.002,0.416-0.002,0.874-0.082,1.276
		C8.132,28.869,8.106,28.956,8.081,29.042z M9.126,29.452c-0.338,0-0.486,0.085-0.617,0.16c-0.088,0.05-0.177,0.098-0.354,0.131
		c0.008-0.029,0.015-0.062,0.02-0.097c0.011-0.064,0.023-0.14,0.05-0.219c0.019-0.072,0.041-0.143,0.064-0.215
		c0.117-0.074,0.218-0.176,0.309-0.271c0.098-0.102,0.199-0.207,0.276-0.22c0.14-0.031,0.185,0.019,0.295,0.17
		c0.046,0.062,0.102,0.136,0.173,0.201c0.023,0.127,0.049,0.251,0.077,0.374C9.309,29.458,9.21,29.452,9.126,29.452z M8.4,28.787
		c0.062-0.333,0.075-0.687,0.077-1.021c0.009,0.012,0.015,0.024,0.025,0.035c0.17,0.297,0.393,0.364,0.629,0.436
		c0.033,0.011,0.067,0.021,0.102,0.031c0.01,0.117,0.02,0.233,0.034,0.35c-0.096-0.104-0.226-0.188-0.442-0.141
		c-0.152,0.025-0.277,0.155-0.408,0.293C8.412,28.776,8.405,28.781,8.4,28.787z M9.214,28.001C9.21,28,9.208,28,9.205,27.999
		c-0.223-0.066-0.369-0.111-0.492-0.331L8.691,27.64c-0.047-0.049-0.058-0.139-0.071-0.243c-0.014-0.124-0.037-0.271-0.13-0.401
		c-0.005-0.127-0.011-0.261-0.018-0.398c-0.032-0.623-0.067-1.331,0.147-1.618L8.607,24.97c0.107-0.149,0.211-0.301,0.309-0.457
		c0.324-0.566,0.62-1.075,0.993-1.614c0.046-0.059,0.105-0.132,0.171-0.213c0.054-0.066,0.111-0.139,0.17-0.213
		c-0.314,0.966-0.585,1.915-0.809,2.851C9.236,26.173,9.163,27.096,9.214,28.001z M11.36,29.409c-0.354,0-0.625,0.083-0.81,0.246
		c-0.312-0.062-0.571-0.109-0.791-0.144c-0.019-0.077-0.036-0.153-0.053-0.23c0.302,0.071,0.567-0.029,0.808-0.125
		c0.204-0.081,0.398-0.158,0.613-0.142c0.242,0.032,0.461,0.216,0.672,0.393c0.02,0.017,0.039,0.032,0.059,0.049
		C11.699,29.428,11.527,29.409,11.36,29.409z M12.338,29.494c-0.123-0.064-0.245-0.168-0.378-0.277
		c-0.238-0.199-0.485-0.406-0.807-0.449c-0.281-0.021-0.509,0.07-0.73,0.158c-0.266,0.104-0.498,0.193-0.769,0.078
		c-0.034-0.195-0.062-0.393-0.082-0.593c0.03,0.019,0.062,0.033,0.095,0.053c0.283,0.153,0.479,0.252,0.628,0.216
		c0.185-0.021,0.334-0.155,0.479-0.285c0.135-0.12,0.264-0.234,0.418-0.252c0.229,0.001,0.863,0.283,1.273,0.54
		C12.403,29.01,12.362,29.29,12.338,29.494z M12.518,28.424c-0.441-0.266-1.051-0.531-1.338-0.531
		c-0.247,0.027-0.419,0.18-0.57,0.314c-0.122,0.107-0.237,0.211-0.359,0.227c-0.084,0.017-0.34-0.123-0.463-0.19
		c-0.089-0.049-0.172-0.094-0.242-0.124c-0.066-0.916,0.004-1.855,0.213-2.722c0.258-1.08,0.578-2.178,0.959-3.299
		c0.197,1.106,0.742,3.122,1.335,3.488c0.071,0.044,0.136,0.061,0.196,0.062c-0.037,0.896,0.066,1.709,0.322,2.535
		C12.55,28.268,12.534,28.346,12.518,28.424z M12.692,27.693c-0.189-0.772-0.244-1.553-0.172-2.421c0.14,0.303,0.339,0.54,0.559,0.8
		c0.04,0.047,0.081,0.097,0.122,0.146C12.985,26.721,12.818,27.225,12.692,27.693z M13.313,25.963
		c-0.015-0.018-0.029-0.035-0.045-0.053c-0.325-0.384-0.582-0.688-0.667-1.229l-0.015,0.002c0.014-0.1,0.025-0.197,0.043-0.3
		c0.023-0.154,0.045-0.306,0.065-0.454c0.079-0.55,0.157-1.077,0.291-1.616c0.05,0.386,0.171,0.733,0.29,1.023
		c0.039,0.098,0.084,0.228,0.133,0.371c0.137,0.4,0.303,0.881,0.514,1.165C13.688,25.222,13.486,25.59,13.313,25.963z
		 M14.077,24.661c-0.167-0.26-0.315-0.693-0.431-1.031c-0.051-0.148-0.098-0.283-0.138-0.386c-0.288-0.696-0.363-1.242-0.243-1.773
		l-0.083-0.02c0.015-0.108,0.028-0.222,0.042-0.338c0.052-0.46,0.107-0.932,0.317-1.264c0.114,0.439,0.274,0.874,0.433,1.302
		c0.085,0.23,0.168,0.457,0.242,0.678l0.005-0.002c0.007,0.864,0.079,1.677,0.251,2.345C14.332,24.327,14.201,24.492,14.077,24.661z
		 M14.483,18.116c-0.452-0.364-0.717-0.768-0.803-1.222H13.68c0.01-0.631,0.027-1.271,0.113-1.854l-0.013-0.002
		c0.005-0.01,0.011-0.02,0.015-0.029c0.367,0.15,0.747,0.264,1.142,0.324c-0.003,0.013-0.005,0.028-0.007,0.04
		c-0.242,0.553-0.436,1.298-0.363,2.151C14.538,17.717,14.509,17.915,14.483,18.116z M29.899,1.418
		c0.976,0.172,1.359,0.7,1.509,1.121c0.026,0.078,0.047,0.157,0.062,0.237c-0.495,0.006-0.987,0.03-1.497,0.078
		c0.021-0.133,0.021-0.278-0.02-0.445c-0.043-0.165-0.101-0.296-0.149-0.412C29.688,1.729,29.645,1.618,29.899,1.418z M28.844,1.521
		c0.25-0.067,0.491-0.106,0.723-0.118c-0.171,0.228-0.104,0.43,0.009,0.692c0.047,0.107,0.1,0.229,0.138,0.373
		c0.036,0.155,0.027,0.286,0.001,0.413c-0.246,0.025-0.498,0.057-0.758,0.094c0.002-0.016,0.006-0.029,0.006-0.046
		c-0.014-0.17-0.058-0.334-0.099-0.493C28.783,2.131,28.709,1.84,28.844,1.521z M29.192,8.909c-0.037,0.05-0.086,0.094-0.146,0.134
		c-0.017-0.042-0.031-0.083-0.049-0.122c-0.04-0.097-0.078-0.188-0.079-0.28c0.021-0.208,0.101-0.398,0.185-0.599
		c0.072-0.173,0.147-0.352,0.188-0.552c0.022-0.116,0.022-0.235,0.022-0.362c0-0.11,0-0.224,0.018-0.334
		c0.007-0.018,0.021-0.037,0.028-0.055c0.069,0,0.137,0.008,0.197,0.021C29.242,7.643,29.177,8.38,29.192,8.909z M28.77,9.017
		c0.021,0.051,0.038,0.096,0.051,0.137c-0.3,0.111-0.713,0.169-1.11,0.203c0.002-0.014,0-0.023,0.004-0.039
		c0.01-0.051,0.086-0.108,0.166-0.169c0.122-0.093,0.273-0.208,0.33-0.402l0.005-0.034c0-0.112-0.063-0.223-0.131-0.34
		c-0.057-0.098-0.118-0.207-0.119-0.268c0.023-0.196,0.095-0.284,0.185-0.396c0.045-0.055,0.091-0.11,0.136-0.188
		c0.069-0.141,0.116-0.188,0.146-0.218c0.096-0.097,0.099-0.16,0.077-0.42c0.186-0.05,0.385-0.1,0.578-0.127
		c-0.021,0.129-0.021,0.252-0.021,0.371c0,0.114,0,0.222-0.018,0.313c-0.035,0.176-0.103,0.335-0.174,0.505
		c-0.087,0.208-0.179,0.424-0.202,0.682C28.671,8.784,28.723,8.908,28.77,9.017z M28.68,11.667c0.049,0.083,0.105,0.178,0.117,0.222
		c0.004,0.025,0.004,0.049,0.002,0.073c-0.072,0.009-0.146,0.019-0.214,0.028c-0.181,0.024-0.351,0.048-0.482,0.049
		c-0.15-0.013-0.305-0.021-0.458-0.026c0.015-0.026,0.025-0.053,0.028-0.082c0.013-0.039,0.038-0.069,0.071-0.108
		c0.059-0.069,0.138-0.164,0.138-0.328c0-0.113-0.078-0.191-0.14-0.254c-0.024-0.023-0.064-0.063-0.068-0.09
		c-0.012-0.108-0.021-0.173-0.029-0.218c-0.011-0.062-0.011-0.062,0.029-0.173c0.018-0.052,0.043-0.122,0.073-0.213
		c0.038-0.09,0.079-0.126,0.121-0.163c0.099-0.088,0.167-0.171,0.137-0.443c-0.019-0.123-0.073-0.206-0.132-0.272
		c0.27-0.026,0.535-0.064,0.774-0.124c-0.08,0.101-0.161,0.215-0.186,0.373c0,0.209,0.129,0.337,0.225,0.431
		c0.066,0.066,0.107,0.11,0.107,0.15c0,0.134-0.062,0.225-0.131,0.331c-0.075,0.111-0.16,0.238-0.16,0.416
		C28.504,11.374,28.59,11.516,28.68,11.667z M27.397,10.972c0.008,0.041,0.019,0.102,0.026,0.188c0,0.114,0.078,0.191,0.14,0.255
		c0.024,0.023,0.064,0.063,0.068,0.077c0,0.07-0.025,0.104-0.08,0.167c-0.044,0.054-0.1,0.119-0.126,0.235
		c-0.005,0.014-0.03,0.049-0.048,0.073c-0.008,0.011-0.018,0.022-0.025,0.034c-0.262-0.006-0.528-0.006-0.806-0.007
		c-0.246,0.008-0.488,0.013-0.729,0.019c-0.024,0-0.051,0.001-0.075,0.001c0.013-0.026,0.032-0.048,0.061-0.076
		c0.062-0.063,0.146-0.149,0.206-0.33c0.021-0.084,0.04-0.14,0.052-0.177c0.027-0.088,0.045-0.146-0.02-0.226
		c-0.019-0.021-0.058-0.068-0.117-0.251c-0.062-0.184-0.156-0.25-0.233-0.292c0.008-0.026,0.024-0.075,0.064-0.162
		c0.021-0.052,0.104-0.102,0.188-0.15c0.146-0.087,0.329-0.195,0.361-0.436c0-0.039-0.008-0.073-0.021-0.105
		c0.045-0.009,0.09-0.019,0.133-0.026c0.164-0.031,0.42-0.046,0.719-0.063c0.137-0.008,0.279-0.017,0.423-0.027
		c0.026,0.033,0.054,0.062,0.079,0.088c0.062,0.062,0.109,0.11,0.121,0.189c0.018,0.161,0,0.177-0.055,0.226
		c-0.054,0.047-0.125,0.11-0.189,0.261c-0.032,0.099-0.057,0.168-0.074,0.218C27.384,10.831,27.379,10.851,27.397,10.972z
		 M27.024,15.479c0.036,0.063,0.067,0.116,0.067,0.166c0,0.064-0.032,0.11-0.087,0.18c-0.051,0.066-0.115,0.149-0.121,0.263
		c-0.082,0.388,0.019,0.721,0.115,1.042c0.069,0.229,0.135,0.453,0.137,0.692c-0.221-0.339-0.453-0.678-0.75-0.94
		c-0.129-0.115-0.256-0.224-0.383-0.328c0.021-0.049,0.041-0.101,0.051-0.16c0-0.146-0.046-0.273-0.09-0.396
		c-0.039-0.107-0.076-0.208-0.076-0.311c0-0.16,0.071-0.288,0.146-0.424c0.06-0.107,0.12-0.219,0.143-0.345
		c0.059-0.352-0.063-0.651-0.191-0.969c-0.013-0.03-0.022-0.061-0.035-0.091c0.587,0.075,1.126,0.243,1.478,0.595l-0.08,0.021
		c-0.102,0.008-0.184,0.033-0.246,0.084c-0.139,0.111-0.149,0.29-0.161,0.464c-0.003,0.05-0.007,0.101-0.014,0.167
		C26.927,15.305,26.979,15.397,27.024,15.479z M26.767,19.674c0.051,0.153,0.1,0.3,0.079,0.515
		c-0.008,0.037-0.018,0.073-0.029,0.109c-0.151-0.24-0.295-0.482-0.434-0.723c-0.193-0.331-0.391-0.666-0.613-0.991
		c0.01-0.031,0.021-0.063,0.03-0.096c0.062-0.182,0.13-0.389,0.129-0.661c-0.019-0.136-0.07-0.247-0.114-0.347
		c-0.061-0.132-0.112-0.247-0.092-0.425c0-0.091,0.064-0.177,0.14-0.276c0.004-0.005,0.008-0.009,0.012-0.014
		c0.114,0.096,0.229,0.195,0.348,0.299c0.312,0.276,0.555,0.655,0.791,1.021c0.023,0.035,0.047,0.069,0.07,0.105
		c-0.035,0.106-0.097,0.219-0.162,0.337c-0.119,0.213-0.242,0.434-0.242,0.686C26.678,19.403,26.723,19.542,26.767,19.674z
		 M26.505,21.938c0.037,0.115,0.075,0.234,0.091,0.364c0.047,0.457-0.094,0.617-0.308,0.847c-0.227-0.267-0.462-0.521-0.706-0.771
		c0.037-0.076,0.088-0.16,0.165-0.275c0.308-0.53,0.253-0.695,0.13-0.939c-0.062-0.118-0.127-0.254-0.155-0.507
		c-0.021-0.186,0.044-0.291,0.118-0.412c0.054-0.089,0.109-0.181,0.132-0.321c0-0.281-0.072-0.391-0.142-0.495
		c-0.043-0.063-0.082-0.124-0.111-0.238c-0.009-0.04-0.01-0.076-0.014-0.113c0.135,0.218,0.266,0.438,0.396,0.664
		c0.177,0.305,0.358,0.611,0.562,0.916c-0.008,0.013-0.014,0.025-0.021,0.037c-0.093,0.183-0.189,0.37-0.212,0.573
		C26.373,21.529,26.438,21.737,26.505,21.938z M25.794,24.572c0.033,0.151,0.066,0.308,0.054,0.485
		c-0.012,0.099-0.035,0.186-0.068,0.264c-0.274-0.245-0.557-0.481-0.836-0.716c0.039-0.053,0.081-0.104,0.125-0.158
		c0.134-0.161,0.271-0.327,0.315-0.54c0.055-0.163,0.048-0.375,0.04-0.579c-0.005-0.14-0.01-0.283,0.006-0.391l0.021-0.1
		c0.008-0.04,0.015-0.075,0.021-0.109c0.209,0.216,0.41,0.438,0.603,0.666c-0.058,0.071-0.113,0.149-0.165,0.242
		C25.672,24.017,25.733,24.299,25.794,24.572z M24.551,25.26c0.012,0.116,0.026,0.235,0.01,0.333
		c-0.017,0.115-0.042,0.211-0.072,0.296c-0.43-0.479-0.846-0.991-1.189-1.544c-0.325-0.567-0.624-1.081-1.007-1.634
		c-0.027-0.035-0.059-0.073-0.09-0.114c0.002,0.001,0.003,0.003,0.004,0.004c0.373,0.29,0.724,0.563,1.188,0.982
		c0.39,0.373,0.812,0.729,1.226,1.073c-0.021,0.038-0.037,0.077-0.052,0.118C24.511,24.921,24.53,25.093,24.551,25.26z
		 M23.78,25.443c0.189,0.235,0.386,0.463,0.582,0.683c-0.094,0.132-0.214,0.227-0.348,0.332c-0.078,0.062-0.161,0.129-0.244,0.204
		c0.002-0.029,0.004-0.061,0.005-0.092C23.797,26.178,23.813,25.782,23.78,25.443z M23.562,23.401
		c-0.475-0.427-0.829-0.703-1.204-0.996c-0.241-0.188-0.493-0.387-0.787-0.631c-0.034-0.053-0.065-0.103-0.096-0.151
		c-0.037-0.106-0.076-0.214-0.114-0.319v-0.07l-0.021,0.011c0-0.002,0-0.004-0.002-0.007c0.004-0.077-0.006-0.146-0.066-0.184
		c-0.05-0.138-0.102-0.274-0.151-0.412c1.182,1.039,2.518,1.383,4.032,1.771v-0.003c0.037,0.037,0.074,0.074,0.111,0.111
		c-0.021,0.078-0.038,0.162-0.059,0.271l-0.021,0.104c-0.02,0.135-0.014,0.291-0.008,0.441c0.006,0.182,0.012,0.371-0.031,0.504
		c-0.037,0.167-0.149,0.304-0.269,0.447c-0.042,0.051-0.083,0.104-0.124,0.156C24.352,24.109,23.94,23.763,23.562,23.401z
		 M18.621,18.544c-0.033-0.462-0.039-0.954-0.046-1.432c-0.008-0.508-0.017-1.027-0.056-1.529c0.521,1.031,0.993,2.034,1.419,3.018
		l-0.085,0.003c0.021,0.827-0.555,1.57-0.896,1.938c-0.064-0.396-0.174-0.771-0.426-1.042
		C18.598,19.181,18.633,18.863,18.621,18.544z M17.623,14.831c0.846-0.536,1.627-1.153,2.387-1.756
		c0.934-0.741,1.899-1.508,2.966-2.103c0.16-0.086,0.327-0.168,0.496-0.248c0.106,0.124,0.247,0.184,0.36,0.229
		c0.182,0.074,0.229,0.1,0.194,0.244c-0.024,0.031-0.103,0.064-0.166,0.091c-0.135,0.057-0.301,0.128-0.338,0.31
		c-0.037,0.221,0.097,0.324,0.174,0.386c0.045,0.033,0.07,0.056,0.076,0.074c0.004,0.02,0.006,0.048,0.008,0.071
		c-0.301,0.038-0.604,0.089-0.913,0.161c-1.048,0.205-1.986,0.786-2.896,1.349C19.219,14.104,18.446,14.577,17.623,14.831z
		 M18.373,18.557c0.03,0.813-0.279,1.655-0.58,2.468c-0.007,0.021-0.015,0.039-0.021,0.06c-0.024-0.908-0.109-1.848-0.218-2.721
		c0.348-0.259,0.606-0.537,0.78-0.841C18.34,17.874,18.349,18.222,18.373,18.557z M16.971,14.821
		c0.309-0.317,0.604-0.654,0.891-0.984c0.443-0.512,0.902-1.042,1.406-1.474c0.197-0.17,0.398-0.335,0.604-0.496
		c0.008,0.01,0.016,0.019,0.021,0.028c0.145,0.186,0.301,0.387,0.396,0.545c-0.161,0.127-0.322,0.254-0.48,0.38
		c-0.895,0.709-1.817,1.44-2.834,2.024C16.973,14.836,16.972,14.829,16.971,14.821z M27.867,8.496
		c0.038,0.068,0.087,0.151,0.096,0.2C27.925,8.8,27.83,8.874,27.729,8.95c-0.112,0.086-0.229,0.175-0.26,0.315
		c-0.008,0.04-0.012,0.076-0.014,0.11c-0.119,0.008-0.233,0.015-0.34,0.021c-0.31,0.019-0.574,0.034-0.758,0.068
		c-0.117,0.021-0.234,0.045-0.354,0.07c-0.113-0.074-0.168-0.121-0.156-0.202c0-0.099,0.074-0.16,0.199-0.253
		c0.133-0.1,0.299-0.225,0.299-0.453c0-0.334-0.188-0.475-0.326-0.576c-0.09-0.066-0.156-0.118-0.17-0.212
		c0.711-0.356,1.455-0.651,2.237-0.84c0.054-0.013,0.116-0.031,0.177-0.048c0.004,0.074,0.004,0.148-0.01,0.176
		c-0.039,0.04-0.105,0.106-0.188,0.273c-0.033,0.058-0.072,0.105-0.109,0.151c-0.097,0.119-0.205,0.254-0.24,0.536
		C27.715,8.231,27.796,8.373,27.867,8.496z M25.565,10.88c0.043,0.022,0.084,0.043,0.121,0.153c0.061,0.18,0.107,0.26,0.142,0.306
		c-0.002,0.006-0.004,0.012-0.007,0.019c-0.012,0.04-0.028,0.098-0.053,0.179c-0.039,0.12-0.09,0.173-0.145,0.229
		c-0.07,0.072-0.127,0.142-0.142,0.256c-0.489,0.011-0.971,0.029-1.455,0.078c-0.004-0.032-0.008-0.068-0.014-0.097
		c-0.027-0.109-0.105-0.171-0.164-0.217c-0.075-0.059-0.094-0.076-0.084-0.144c0.01-0.049,0.106-0.089,0.191-0.125
		c0.11-0.047,0.237-0.101,0.297-0.218l0.01-0.025c0.094-0.375-0.156-0.478-0.34-0.552c-0.076-0.032-0.15-0.063-0.212-0.11
		c0.73-0.323,1.523-0.581,2.316-0.751c0.015,0.014,0.023,0.026,0.025,0.036c-0.015,0.099-0.102,0.156-0.242,0.24
		c-0.117,0.069-0.237,0.142-0.289,0.267C25.424,10.628,25.372,10.782,25.565,10.88z M25.729,16.083
		c0.039,0.107,0.075,0.208,0.076,0.29c0,0.006-0.004,0.012-0.005,0.019c-0.655-0.511-1.306-0.857-2.095-0.951
		c-0.181-0.028-0.36-0.06-0.543-0.09c-0.166-0.028-0.334-0.056-0.502-0.083c0.184-0.515,0.315-1.024,0.317-1.479
		c0.236,0.017,0.476,0.031,0.707,0.031c0.074,0,0.151-0.001,0.232-0.003c0.016,0.014,0.033,0.027,0.054,0.035l0.02-0.036
		c0.065-0.002,0.133-0.003,0.202-0.005c0.452-0.011,0.974-0.022,1.478,0.02c0.027,0.072,0.055,0.144,0.083,0.213
		c0.12,0.297,0.224,0.554,0.177,0.835c-0.014,0.084-0.062,0.172-0.114,0.265c-0.083,0.149-0.179,0.32-0.179,0.545
		C25.639,15.834,25.686,15.961,25.729,16.083z M25.475,20.684c0.032,0.298,0.117,0.467,0.18,0.59
		c0.091,0.183,0.133,0.266-0.118,0.697c-0.058,0.087-0.103,0.158-0.139,0.224c-0.405-0.399-0.827-0.783-1.244-1.159
		c-0.14-0.126-0.278-0.252-0.419-0.38c0.067-0.389-0.006-0.734-0.077-1.069c-0.054-0.242-0.105-0.492-0.105-0.759
		c0-0.184,0.038-0.363,0.08-0.555c0.041-0.195,0.085-0.396,0.085-0.606c0-0.235-0.048-0.439-0.11-0.643
		c0.324,0.189,0.621,0.383,0.853,0.574c0.419,0.34,0.735,0.721,1.017,1.126c-0.032,0.154-0.043,0.323,0.003,0.521
		c0.04,0.158,0.099,0.247,0.146,0.318c0.058,0.088,0.101,0.151,0.103,0.337c-0.013,0.074-0.053,0.14-0.098,0.213
		C25.545,20.249,25.442,20.415,25.475,20.684z M25.59,18.333c-0.26-0.35-0.557-0.685-0.927-0.983
		c-0.563-0.467-1.467-0.933-2.292-1.336c0.069-0.167,0.139-0.336,0.203-0.506c0.185,0.029,0.366,0.059,0.549,0.09
		c0.184,0.03,0.364,0.061,0.55,0.09c0.75,0.09,1.372,0.428,2.005,0.925c-0.004,0.007-0.01,0.013-0.014,0.02
		c-0.09,0.119-0.191,0.253-0.189,0.412c-0.029,0.23,0.046,0.396,0.112,0.543c0.042,0.092,0.081,0.178,0.095,0.261
		C25.682,18.029,25.639,18.18,25.59,18.333z M23.811,13.568c-0.041,0.001-0.084,0.001-0.123,0.001c-0.297,0-0.608-0.022-0.912-0.045
		c-0.414-0.03-0.842-0.062-1.247-0.038c-0.144,0-0.346,0.053-0.58,0.114c-0.114,0.029-0.303,0.077-0.472,0.107
		c0.781-0.478,1.59-0.931,2.459-1.102c0.291-0.068,0.576-0.116,0.859-0.152c0,0.105-0.002,0.217-0.004,0.329
		C23.783,13.132,23.78,13.391,23.811,13.568z M21.01,13.841c0.2-0.052,0.408-0.106,0.525-0.106c0.396-0.022,0.815,0.008,1.223,0.038
		c0.021,0.001,0.043,0.003,0.063,0.004h-0.09c0,0.437-0.137,0.94-0.321,1.452c-0.377-0.056-0.756-0.104-1.125-0.123
		c-0.161-0.009-0.353-0.011-0.557-0.012c-0.685-0.006-1.598-0.018-2.071-0.33c0.486-0.238,0.955-0.524,1.418-0.81
		C20.299,14.023,20.657,13.933,21.01,13.841z M22.321,15.468c-0.057,0.146-0.114,0.29-0.176,0.435
		c-0.086-0.042-0.174-0.084-0.257-0.124c-0.306-0.147-0.632-0.305-0.87-0.433c0.09,0.002,0.175,0.004,0.254,0.008
		C21.615,15.374,21.969,15.417,22.321,15.468z M19.627,15.297c0.528,1.187,1.047,2.166,1.58,2.985
		c-0.174,0.471-0.342,0.949-0.448,1.434c-0.607-1.509-1.325-3.067-2.159-4.689C18.879,15.182,19.242,15.257,19.627,15.297z
		 M19.996,15.326c0.146,0.007,0.291,0.012,0.434,0.014c0.137,0.156,0.519,0.345,1.32,0.731c0.088,0.042,0.18,0.086,0.271,0.131
		c-0.03,0.069-0.061,0.14-0.09,0.208c-0.132,0.306-0.256,0.594-0.354,0.857c-0.069,0.209-0.146,0.419-0.226,0.631
		C20.895,17.17,20.444,16.316,19.996,15.326z M21.521,18.153c0.103-0.271,0.203-0.54,0.289-0.803
		c0.096-0.254,0.219-0.539,0.351-0.842c0.027-0.065,0.057-0.132,0.085-0.197c0.345,0.168,0.699,0.347,1.038,0.531l0.014,0.041
		c0.092,0.27,0.17,0.503,0.17,0.782c0,0.184-0.039,0.362-0.08,0.555c-0.043,0.195-0.086,0.396-0.086,0.606
		c0,0.293,0.057,0.557,0.111,0.812c0.06,0.271,0.114,0.532,0.098,0.81c-0.34-0.313-0.677-0.636-0.988-0.966
		c-0.341-0.378-0.674-0.814-1.004-1.316C21.52,18.161,21.521,18.157,21.521,18.153z M25.764,12.905c0,0.064-0.035,0.11-0.093,0.18
		c-0.083,0.101-0.2,0.244-0.085,0.476c0.001,0.004,0.002,0.008,0.004,0.013c-0.483-0.033-0.972-0.022-1.401-0.012
		c-0.044,0.001-0.085,0.002-0.128,0.003c-0.033-0.161-0.024-0.535-0.021-0.776c0.003-0.127,0.005-0.249,0.005-0.364
		c0.492-0.051,0.981-0.068,1.483-0.079c0.062,0.205,0.135,0.287,0.204,0.349C25.767,12.722,25.779,12.735,25.764,12.905z
		 M23.325,10.435c-0.174,0.082-0.343,0.165-0.506,0.253c-0.127,0.07-0.251,0.144-0.375,0.219c-0.106-0.108-0.149-0.253-0.194-0.406
		c-0.025-0.086-0.056-0.176-0.098-0.269c0.403-0.295,0.817-0.6,1.247-0.898c0.16,0.292,0.274,0.614,0.229,0.83
		c-0.022,0.108-0.084,0.177-0.192,0.217l-0.116,0.043L23.325,10.435z M20.938,11.078c0.265-0.186,0.525-0.369,0.785-0.549
		l0.221-0.152c0.024,0.062,0.047,0.126,0.066,0.194c0.047,0.16,0.1,0.323,0.223,0.467c-0.279,0.177-0.554,0.361-0.819,0.553
		C21.267,11.402,21.104,11.236,20.938,11.078z M21.211,11.736c-0.245,0.181-0.486,0.364-0.726,0.549
		c-0.104-0.166-0.251-0.356-0.396-0.543c-0.006-0.008-0.013-0.017-0.021-0.024c0.22-0.168,0.44-0.332,0.664-0.492
		C20.904,11.389,21.066,11.552,21.211,11.736z M26.301,6.818c-0.018-0.088-0.078-0.151-0.157-0.207
		c0.352-0.124,0.71-0.241,1.075-0.361c0.169-0.056,0.338-0.11,0.507-0.167c0.186-0.062,0.363-0.129,0.54-0.195
		c0.033-0.012,0.064-0.023,0.096-0.035c-0.01,0.006-0.02,0.012-0.03,0.019c-0.123,0.069-0.265,0.147-0.322,0.331
		c-0.03,0.209,0.069,0.339,0.15,0.442v0.001c-0.054,0.015-0.104,0.028-0.148,0.04c-0.697,0.168-1.361,0.416-2,0.715
		c0.016-0.015,0.029-0.028,0.045-0.043C26.174,7.249,26.336,7.1,26.301,6.818z M25.887,7.173c-0.076,0.069-0.155,0.142-0.195,0.243
		c-0.025,0.062-0.046,0.117-0.061,0.169c-0.772,0.392-1.504,0.853-2.197,1.33C23.352,8.799,23.271,8.7,23.202,8.63
		c-0.101-0.118-0.185-0.24-0.263-0.366c0.498-0.348,1.006-0.67,1.529-0.946c0.443-0.23,0.9-0.422,1.368-0.596
		c0.083,0.042,0.21,0.106,0.219,0.136C26.071,6.996,26.006,7.064,25.887,7.173z M23.604,9.191c0.642-0.44,1.312-0.867,2.016-1.235
		c0.043,0.127,0.141,0.213,0.252,0.296c0.125,0.094,0.225,0.167,0.225,0.376c0,0.1-0.075,0.161-0.199,0.254
		c-0.133,0.1-0.299,0.224-0.297,0.435c-0.019,0.125,0.027,0.218,0.096,0.29c-0.62,0.148-1.235,0.348-1.821,0.588
		C23.926,9.901,23.787,9.519,23.604,9.191z M28.249,6.259c0.022-0.07,0.105-0.117,0.203-0.171c0.139-0.078,0.312-0.175,0.339-0.379
		c0.002-0.003,0-0.006,0.001-0.01c0.122-0.04,0.243-0.079,0.367-0.11c0.062-0.013,0.141-0.019,0.226-0.021
		c0.004,0.026,0.009,0.055,0.014,0.081c0.028,0.156,0.056,0.304,0.023,0.498c-0.017,0.065-0.08,0.159-0.144,0.25
		c-0.005,0.006-0.009,0.014-0.014,0.02c-0.285,0.012-0.583,0.084-0.851,0.157c-0.021-0.029-0.04-0.058-0.061-0.082
		C28.28,6.396,28.24,6.338,28.249,6.259z M28.297,5.182c0,0.116,0.074,0.212,0.145,0.298c-0.098,0.035-0.194,0.069-0.289,0.105
		c-0.174,0.064-0.349,0.131-0.528,0.19c-0.168,0.057-0.337,0.111-0.505,0.167c-0.446,0.146-0.899,0.295-1.35,0.461
		c-0.067-0.043-0.127-0.09-0.137-0.14c-0.039-0.117,0.056-0.273,0.156-0.438c0.068-0.115,0.146-0.244,0.188-0.385
		c0.144-0.05,0.283-0.1,0.424-0.148c0.345-0.12,0.701-0.244,1.04-0.375c0.39-0.151,0.788-0.305,1.192-0.447
		c0,0.021,0,0.04-0.004,0.064c-0.012,0.063-0.062,0.126-0.117,0.198C28.43,4.838,28.326,4.969,28.297,5.182z M25.575,5.696
		c-0.125,0.206-0.255,0.42-0.184,0.627c0.012,0.074,0.051,0.135,0.104,0.188c-0.399,0.154-0.796,0.322-1.178,0.521
		c-0.525,0.278-1.034,0.601-1.532,0.947c-0.089-0.187-0.156-0.387-0.205-0.603c0.51-0.436,1.039-0.843,1.6-1.18
		c0.455-0.246,0.963-0.45,1.478-0.639C25.631,5.604,25.604,5.649,25.575,5.696z M22.735,8.409c0.082,0.132,0.175,0.263,0.281,0.391
		c0.068,0.067,0.142,0.157,0.211,0.257c-0.434,0.303-0.852,0.609-1.258,0.907c-0.016-0.018-0.029-0.037-0.045-0.055
		c-0.089-0.104-0.181-0.213-0.251-0.352c-0.051-0.081-0.094-0.159-0.134-0.236C21.933,9.006,22.331,8.7,22.735,8.409z M21.735,10.07
		c0.011,0.013,0.021,0.024,0.029,0.036l-0.225,0.156c-0.277,0.192-0.56,0.389-0.838,0.587c-0.156-0.15-0.304-0.306-0.438-0.485
		c0.026-0.021,0.052-0.043,0.078-0.064c0.329-0.273,0.661-0.549,0.998-0.821c0.036,0.067,0.071,0.134,0.116,0.202
		C21.535,9.835,21.637,9.956,21.735,10.07z M20.139,10.05c-0.013,0.01-0.025,0.02-0.037,0.03c-0.006-0.042-0.006-0.083-0.004-0.132
		c0.004-0.074,0.007-0.165-0.02-0.278c0.316-0.281,0.627-0.568,0.93-0.854c0.062,0.107,0.115,0.218,0.17,0.335
		c0.006,0.01,0.011,0.021,0.016,0.032C20.838,9.47,20.485,9.761,20.139,10.05z M20.496,10.998c-0.209,0.15-0.416,0.305-0.622,0.463
		c-0.043-0.06-0.083-0.115-0.116-0.167c-0.098-0.128-0.188-0.218-0.271-0.286c0.197-0.16,0.395-0.322,0.59-0.483
		C20.205,10.697,20.35,10.853,20.496,10.998z M19.028,20.826c0.296-0.295,0.934-1.022,1.055-1.895
		c0.202,0.476,0.396,0.947,0.577,1.413c-0.001,0.009-0.002,0.017-0.005,0.024l0.015,0.001c0.151,0.396,0.299,0.787,0.437,1.178
		c-0.062,0.794-0.714,3.434-1.288,3.789c-0.03,0.02-0.056,0.025-0.075,0.027c-0.023-0.339-0.063-0.688-0.125-1.06
		c-0.023-0.15-0.045-0.301-0.065-0.449c-0.097-0.684-0.188-1.329-0.396-2.017c-0.067-0.23-0.1-0.504-0.132-0.794
		c-0.01-0.084-0.02-0.169-0.03-0.254L19.028,20.826z M20.936,20.124c0.078-0.528,0.254-1.062,0.443-1.584
		c0.295,0.431,0.594,0.818,0.904,1.162c0.521,0.552,1.096,1.07,1.651,1.574c0.285,0.257,0.572,0.519,0.855,0.784
		C23.285,21.669,22.051,21.277,20.936,20.124z M24.807,25.631c0.021-0.128,0.006-0.268-0.01-0.399
		c-0.017-0.137-0.031-0.276,0.006-0.37c0.004-0.013,0.011-0.023,0.016-0.036c0.278,0.232,0.56,0.472,0.832,0.716
		c-0.094,0.124-0.209,0.229-0.33,0.335c-0.149,0.135-0.305,0.274-0.424,0.46c-0.073-0.08-0.149-0.162-0.226-0.244
		C24.729,25.967,24.778,25.821,24.807,25.631z M27.057,13.492c-0.053,0.175-0.046,0.302-0.01,0.404
		c-0.354-0.164-0.764-0.254-1.191-0.3c-0.004-0.016-0.008-0.031-0.014-0.046l0.021-0.016c-0.021-0.028-0.032-0.049-0.046-0.069
		c-0.004-0.017-0.01-0.032-0.014-0.049l-0.007,0.002c-0.021-0.063,0.009-0.104,0.065-0.174c0.063-0.077,0.151-0.182,0.149-0.327
		c0.025-0.244-0.015-0.324-0.113-0.411c-0.034-0.03-0.07-0.066-0.108-0.168c0.012,0,0.023-0.001,0.037-0.001
		c0.24-0.005,0.484-0.01,0.727-0.018c0.24,0,0.473,0,0.703,0.004c0.012,0.091,0.061,0.166,0.102,0.23
		c0.035,0.054,0.067,0.104,0.068,0.129c-0.018,0.162-0.094,0.271-0.174,0.387C27.17,13.188,27.076,13.322,27.057,13.492z
		 M29.424,4.935c-0.038,0.117-0.053,0.217-0.059,0.312c-0.1,0.003-0.192,0.011-0.277,0.027c-0.135,0.034-0.268,0.077-0.397,0.12
		c-0.016-0.02-0.029-0.04-0.046-0.058c-0.041-0.051-0.098-0.121-0.1-0.137c0.018-0.128,0.089-0.218,0.164-0.313
		c0.069-0.089,0.143-0.182,0.168-0.31c0.012-0.077,0.008-0.137,0-0.191c0.242-0.082,0.485-0.159,0.731-0.229
		c0.025,0.055,0.06,0.124,0.06,0.152c0,0.176-0.053,0.263-0.119,0.373C29.507,4.752,29.459,4.831,29.424,4.935z M29.506,3.851
		c-0.249,0.07-0.496,0.148-0.742,0.231c-0.005-0.02-0.01-0.039-0.01-0.063c0-0.115-0.021-0.196-0.043-0.275
		c-0.021-0.077-0.04-0.15-0.043-0.239c0.012-0.06,0.058-0.111,0.109-0.171c0.024-0.027,0.051-0.059,0.073-0.091
		c0.271-0.04,0.533-0.074,0.789-0.103c-0.004,0.01-0.006,0.019-0.01,0.028c-0.062,0.183-0.13,0.389-0.13,0.644
		C29.501,3.824,29.504,3.837,29.506,3.851z M28.553,1.612c-0.076,0.322-0.002,0.617,0.069,0.888c0.04,0.155,0.079,0.302,0.09,0.439
		c0,0.026-0.005,0.051-0.014,0.073c-0.192,0.029-0.389,0.06-0.59,0.095c-0.421,0.072-0.867,0.115-1.301,0.157
		c-0.414,0.039-0.836,0.08-1.248,0.147C26.605,2.577,27.629,1.928,28.553,1.612z M25.153,3.745c0.541-0.123,1.115-0.179,1.679-0.232
		c0.438-0.042,0.889-0.085,1.319-0.159c0.115-0.021,0.228-0.038,0.339-0.056c-0.029,0.049-0.056,0.107-0.068,0.182
		c0,0.146,0.024,0.243,0.049,0.328c0.018,0.069,0.033,0.129,0.033,0.211c0,0.057,0.01,0.104,0.022,0.146
		c-0.407,0.144-0.811,0.298-1.201,0.451c-0.334,0.128-0.688,0.252-1.03,0.371c-0.103,0.035-0.203,0.071-0.305,0.107
		c-0.01-0.03-0.019-0.062-0.031-0.093c-0.103-0.201-0.367-0.345-0.647-0.496c-0.229-0.124-0.462-0.253-0.579-0.399
		C24.873,3.982,25.014,3.862,25.153,3.745z M24.547,4.27c0.151,0.182,0.399,0.321,0.646,0.454c0.234,0.127,0.478,0.258,0.54,0.385
		c0.012,0.022,0.018,0.045,0.022,0.067c-0.6,0.214-1.195,0.446-1.736,0.739c-0.528,0.317-1.025,0.692-1.504,1.092
		c-0.027-0.224-0.039-0.466-0.035-0.729C23.152,5.575,23.85,4.893,24.547,4.27z M22.578,8.125c-0.401,0.287-0.796,0.59-1.186,0.9
		c-0.062-0.131-0.122-0.258-0.198-0.384c0.001-0.001,0.002-0.003,0.005-0.004c0.383-0.36,0.771-0.726,1.169-1.076
		C22.42,7.75,22.487,7.938,22.578,8.125z M22.229,6.542c0.006,0.216,0.023,0.436,0.062,0.658c-0.441,0.382-0.869,0.782-1.287,1.178
		c-0.067-0.077-0.145-0.152-0.234-0.227C21.232,7.62,21.724,7.077,22.229,6.542z M20.604,8.339c0.085,0.069,0.155,0.139,0.216,0.209
		c-0.274,0.26-0.555,0.521-0.84,0.776c-0.022-0.052-0.055-0.1-0.101-0.138C20.112,8.911,20.354,8.628,20.604,8.339z M19.721,9.378
		c0.027,0.022,0.042,0.063,0.059,0.126c-0.176,0.153-0.354,0.304-0.534,0.451C19.397,9.767,19.557,9.575,19.721,9.378z M19.85,9.87
		c0,0.022,0.001,0.045,0,0.066c-0.005,0.094-0.008,0.197,0.043,0.317c-0.234,0.195-0.473,0.391-0.711,0.584
		c-0.072-0.024-0.145-0.042-0.221-0.062c-0.062-0.015-0.125-0.03-0.194-0.051C19.141,10.459,19.502,10.171,19.85,9.87z
		 M18.487,10.893c0.164,0.063,0.302,0.099,0.413,0.126c0.016,0.003,0.027,0.007,0.041,0.01c-0.249,0.2-0.5,0.397-0.75,0.585
		c-0.337,0.252-0.632,0.536-0.904,0.835C17.567,12.074,17.979,11.535,18.487,10.893z M16.919,13.384
		c0.434-0.539,0.891-1.081,1.467-1.513c0.301-0.226,0.602-0.463,0.9-0.704c0.083,0.057,0.168,0.138,0.268,0.267
		c0.033,0.054,0.074,0.113,0.121,0.176c-0.21,0.164-0.417,0.333-0.619,0.508c-0.521,0.446-0.988,0.985-1.439,1.507
		c-0.227,0.261-0.459,0.522-0.697,0.778L16.919,13.384L16.919,13.384z M17.063,15.293c0.396-0.062,0.774-0.175,1.143-0.325
		c0.005,0.011,0.01,0.021,0.015,0.03L18.208,15c0.086,0.583,0.104,1.223,0.113,1.854l-0.002-0.001
		c-0.086,0.456-0.352,0.858-0.803,1.223C17.369,16.938,17.188,15.937,17.063,15.293z M17.527,24.131
		c0.173-0.668,0.245-1.479,0.251-2.345l0.007,0.003c0.072-0.222,0.155-0.447,0.241-0.679c0.158-0.428,0.318-0.862,0.433-1.302
		c0.211,0.332,0.266,0.804,0.317,1.264c0.015,0.115,0.027,0.229,0.041,0.338l-0.082,0.02c0.119,0.53,0.045,1.077-0.243,1.772
		c-0.04,0.104-0.087,0.236-0.138,0.387c-0.114,0.338-0.264,0.771-0.432,1.031C17.8,24.453,17.67,24.287,17.527,24.131z
		 M18.688,25.923c-0.174-0.372-0.374-0.74-0.608-1.089c0.211-0.284,0.377-0.765,0.514-1.165c0.049-0.145,0.093-0.274,0.132-0.371
		c0.12-0.29,0.241-0.64,0.29-1.024c0.135,0.54,0.213,1.066,0.291,1.617c0.021,0.149,0.043,0.3,0.066,0.453
		c0.018,0.104,0.027,0.201,0.043,0.301l-0.017-0.002c-0.084,0.541-0.342,0.844-0.667,1.228
		C18.717,25.888,18.701,25.906,18.688,25.923z M18.799,26.177c0.041-0.05,0.082-0.1,0.123-0.146
		c0.219-0.259,0.419-0.496,0.559-0.799c0.072,0.868,0.019,1.647-0.172,2.42C19.182,27.186,19.016,26.682,18.799,26.177z
		 M22.24,29.471c-0.221,0.033-0.479,0.08-0.791,0.145c-0.185-0.163-0.455-0.246-0.811-0.246c-0.166,0-0.337,0.021-0.497,0.047
		c0.021-0.017,0.039-0.032,0.059-0.049c0.212-0.178,0.431-0.359,0.673-0.393c0.214-0.018,0.407,0.061,0.612,0.142
		c0.24,0.096,0.507,0.196,0.808,0.125C22.276,29.319,22.26,29.395,22.24,29.471z M22.346,28.963
		c-0.27,0.115-0.502,0.027-0.768-0.078c-0.224-0.087-0.45-0.178-0.73-0.157c-0.322,0.043-0.568,0.249-0.808,0.449
		c-0.132,0.109-0.255,0.213-0.378,0.278c-0.024-0.205-0.064-0.483-0.127-0.813c0.409-0.257,1.045-0.539,1.272-0.54
		c0.154,0.018,0.282,0.131,0.418,0.252c0.146,0.129,0.295,0.263,0.479,0.285c0.149,0.035,0.346-0.062,0.629-0.217
		c0.032-0.019,0.062-0.034,0.094-0.052C22.407,28.571,22.381,28.768,22.346,28.963z M22.457,28.082
		c-0.07,0.029-0.154,0.073-0.243,0.124c-0.123,0.066-0.378,0.205-0.462,0.189c-0.123-0.016-0.238-0.118-0.359-0.228
		c-0.151-0.136-0.324-0.287-0.569-0.313c-0.287,0-0.896,0.266-1.339,0.53c-0.018-0.077-0.032-0.156-0.053-0.237
		c0.255-0.826,0.359-1.64,0.322-2.535c0.06-0.004,0.125-0.02,0.195-0.062c0.594-0.366,1.139-2.383,1.335-3.488
		c0.382,1.121,0.7,2.219,0.959,3.299C22.453,26.223,22.522,27.165,22.457,28.082z M21.75,22.433c0.059,0.073,0.115,0.146,0.17,0.213
		c0.063,0.08,0.125,0.154,0.17,0.213c0.373,0.538,0.67,1.048,0.994,1.614c0.098,0.156,0.201,0.308,0.309,0.457l-0.012,0.009
		c0.215,0.287,0.179,0.994,0.146,1.618c-0.007,0.139-0.013,0.271-0.018,0.399c-0.093,0.129-0.115,0.275-0.13,0.399
		c-0.013,0.104-0.022,0.194-0.071,0.242l-0.021,0.028c-0.122,0.22-0.27,0.264-0.492,0.331c-0.003,0.001-0.006,0.002-0.009,0.003
		c0.052-0.904-0.023-1.827-0.229-2.68C22.334,24.347,22.063,23.399,21.75,22.433z M23.6,28.749c-0.005-0.007-0.01-0.013-0.016-0.019
		c-0.132-0.137-0.256-0.267-0.409-0.292c-0.216-0.048-0.346,0.035-0.442,0.141c0.016-0.115,0.025-0.232,0.035-0.35
		c0.033-0.012,0.068-0.021,0.102-0.032c0.235-0.07,0.46-0.138,0.63-0.435c0.01-0.011,0.016-0.024,0.023-0.036
		C23.524,28.061,23.539,28.416,23.6,28.749z M23.492,29.572c-0.132-0.074-0.28-0.16-0.617-0.16c-0.084,0-0.183,0.007-0.293,0.018
		c0.027-0.124,0.055-0.248,0.077-0.374c0.07-0.065,0.127-0.138,0.174-0.202c0.109-0.15,0.154-0.2,0.294-0.17
		c0.078,0.014,0.18,0.118,0.276,0.221c0.091,0.096,0.191,0.195,0.31,0.271c0.022,0.073,0.046,0.143,0.063,0.215
		c0.025,0.079,0.039,0.153,0.05,0.219c0.006,0.034,0.012,0.066,0.02,0.098C23.668,29.67,23.58,29.623,23.492,29.572z M23.92,29.001
		c-0.025-0.085-0.051-0.171-0.068-0.259c-0.08-0.402-0.08-0.858-0.082-1.277c-0.014-0.115-0.016-0.262-0.013-0.421
		c0.132-0.168,0.275-0.281,0.413-0.392c0.131-0.104,0.257-0.205,0.365-0.342c0.082,0.09,0.164,0.178,0.245,0.265
		c-0.127,0.419,0.159,0.665,0.396,0.868c0.226,0.193,0.437,0.376,0.421,0.691c-0.01,0.138-0.146,0.311-0.371,0.473
		c-0.397,0.288-0.985,0.479-1.26,0.412C23.951,29.016,23.936,29.007,23.92,29.001z M24.391,29.643c-0.123,0-0.24,0.019-0.354,0.045
		l-0.048-0.065c0.007-0.005,0.029-0.011,0.059,0c0.028,0.011,0.042,0.029,0.046,0.036c-0.006-0.013-0.014-0.057-0.02-0.093
		c-0.013-0.071-0.026-0.159-0.058-0.247c-0.003-0.014-0.009-0.029-0.013-0.045c0.394,0.041,0.995-0.193,1.37-0.464
		c0.204-0.146,0.453-0.381,0.474-0.659c0.022-0.439-0.271-0.692-0.507-0.896c-0.195-0.167-0.322-0.29-0.338-0.449
		c0.096,0.099,0.188,0.196,0.281,0.292c0.235,0.243,0.462,0.477,0.672,0.704c-0.128,0.742-0.187,1.685,0.102,2.48
		C25.629,30.005,25.027,29.643,24.391,29.643z M26.27,26.543c-0.031,0.093-0.151,0.458-0.258,0.956
		c-0.176-0.188-0.357-0.377-0.549-0.574c-0.127-0.131-0.258-0.267-0.389-0.402c0.004-0.007,0.005-0.012,0.008-0.018
		c0.102-0.173,0.248-0.305,0.403-0.442c0.117-0.104,0.242-0.218,0.349-0.354c0.174,0.157,0.342,0.319,0.502,0.485L26.27,26.543z
		 M26.393,25.9c-0.137-0.138-0.276-0.271-0.422-0.405c0.062-0.117,0.105-0.253,0.125-0.413c0.018-0.221-0.022-0.401-0.059-0.563
		c-0.056-0.255-0.101-0.456,0.084-0.755c0.036-0.063,0.073-0.117,0.11-0.168c0.168,0.211,0.328,0.426,0.476,0.65l0.002-0.001
		L26.393,25.9z M26.807,23.738l-0.013,0.065c-0.11-0.156-0.228-0.312-0.348-0.46c0.005-0.003,0.007-0.007,0.011-0.01
		c0.149-0.16,0.293-0.316,0.357-0.565c-0.002,0.15,0.001,0.297,0.004,0.432C26.824,23.416,26.83,23.617,26.807,23.738z
		 M26.845,22.316c-0.001-0.014-0.001-0.024-0.002-0.04c-0.017-0.156-0.06-0.287-0.101-0.414c-0.062-0.186-0.111-0.345-0.065-0.556
		c0.017-0.143,0.077-0.278,0.147-0.417c0.11,0.156,0.229,0.311,0.355,0.461C26.979,21.643,26.885,21.98,26.845,22.316z
		 M27.387,21.089c-0.145-0.174-0.275-0.354-0.4-0.534c0.044-0.102,0.082-0.208,0.105-0.331c0.025-0.279-0.035-0.464-0.088-0.627
		c-0.041-0.126-0.077-0.234-0.077-0.381c0-0.188,0.106-0.378,0.21-0.563c0.039-0.067,0.076-0.138,0.111-0.207
		c0.198,0.292,0.418,0.568,0.688,0.784C27.897,20.002,27.803,20.601,27.387,21.089z M27.965,18.544l-0.006,0.161
		c-0.002,0.071-0.005,0.14-0.008,0.21c-0.228-0.216-0.415-0.48-0.603-0.765c0.092-0.415-0.01-0.76-0.111-1.094
		c-0.093-0.308-0.18-0.598-0.106-0.928l0.004-0.027c0-0.034,0.025-0.069,0.068-0.125c0.059-0.076,0.139-0.18,0.139-0.332
		c0-0.115-0.053-0.208-0.1-0.29c-0.035-0.063-0.066-0.116-0.067-0.151c0.007-0.055,0.011-0.111,0.015-0.165
		c0.009-0.126,0.017-0.244,0.068-0.286c0.002-0.002,0.006-0.003,0.008-0.004l0.002,0.009C27.274,14.784,28.004,17.432,27.965,18.544
		z M29.555,13.914L27.639,14.4l0.047-0.04c-0.024-0.029-0.054-0.054-0.08-0.081c-0.067-0.117-0.139-0.206-0.196-0.276
		c-0.127-0.154-0.181-0.219-0.109-0.459c0.017-0.13,0.082-0.224,0.157-0.332c0.091-0.129,0.191-0.275,0.218-0.514
		c0-0.113-0.059-0.205-0.107-0.279c-0.021-0.035-0.04-0.063-0.051-0.088c0.191,0.006,0.383,0.015,0.574,0.03
		c0.168,0,0.349-0.025,0.54-0.052c0.019-0.002,0.036-0.005,0.055-0.007c-0.019,0.063-0.027,0.13-0.013,0.198
		c0.015,0.166,0.055,0.313,0.092,0.456c0.074,0.27,0.137,0.503,0.037,0.825l0.238,0.073c0.12-0.392,0.041-0.682-0.034-0.964
		c-0.037-0.138-0.072-0.27-0.087-0.426c-0.012-0.056,0.01-0.113,0.043-0.195c0.223-0.021,0.436-0.023,0.613,0.041
		c0.041,0.014,0.076,0.024,0.11,0.035c0.043,0.014,0.097,0.029,0.125,0.042c0.008,0.021,0.018,0.04,0.027,0.06
		c0.022,0.046,0.049,0.091,0.082,0.135C29.665,12.978,29.582,13.596,29.555,13.914z M29.84,10.854
		c0.09,0.075,0.076,0.198-0.011,0.53c-0.051,0.188-0.104,0.409-0.099,0.637c-0.017-0.005-0.034-0.011-0.05-0.016
		c-0.197-0.071-0.416-0.081-0.635-0.068c0-0.032,0-0.065-0.006-0.101c-0.023-0.09-0.084-0.191-0.147-0.299
		c-0.06-0.099-0.14-0.233-0.14-0.294c0-0.103,0.051-0.18,0.117-0.277c0.076-0.116,0.174-0.261,0.174-0.47
		c0-0.146-0.099-0.243-0.184-0.327c-0.093-0.093-0.149-0.155-0.15-0.233c0.016-0.093,0.086-0.182,0.16-0.275
		c0.058-0.071,0.117-0.15,0.162-0.246c0.068-0.03,0.133-0.066,0.19-0.104C29.317,10.095,29.594,10.649,29.84,10.854z M29.675,6.458
		c-0.039-0.01-0.077-0.021-0.118-0.026c0.049-0.076,0.09-0.151,0.109-0.231c0.041-0.247,0.008-0.431-0.022-0.594
		c-0.003-0.013-0.005-0.024-0.007-0.037c0.025,0,0.051,0.001,0.075,0.001c0.136,0.002,0.269,0.004,0.394,0
		C29.932,5.877,29.791,6.172,29.675,6.458z M31.222,3.982c-0.364,0.428-0.665,0.843-0.915,1.242
		c-0.168,0.027-0.399,0.024-0.589,0.021c-0.034,0-0.069-0.001-0.103-0.001c0.006-0.07,0.018-0.145,0.046-0.23
		c0.025-0.078,0.062-0.139,0.101-0.203c0.072-0.12,0.154-0.256,0.154-0.501c0-0.07-0.027-0.143-0.063-0.218
		c0.171-0.045,0.342-0.087,0.515-0.122C30.681,3.9,31,3.863,31.315,3.854C31.287,3.901,31.256,3.946,31.222,3.982z M31.446,3.525
		c-0.382,0-0.769,0.043-1.147,0.128c-0.183,0.037-0.365,0.082-0.547,0.131c0.005-0.201,0.059-0.365,0.115-0.537
		c0.016-0.045,0.028-0.09,0.045-0.136c0.541-0.053,1.062-0.081,1.585-0.087C31.505,3.202,31.485,3.374,31.446,3.525z"
		fill="url(#gradient)" />
</svg>